<svg version="1.1" id="Layer_1" xmlns="http://www.w3.org/2000/svg" xmlns:xlink="http://www.w3.org/1999/xlink" x="0px" y="0px"
	 width="100%" viewBox="0 0 270 263" enable-background="new 0 0 270 263" xml:space="preserve">
<path fill="#FEFEFE" opacity="1.000000" stroke="none" 
	d="
M271.000000,90.000000 
	C271.000000,147.000000 270.960541,203.500092 271.097107,259.999756 
	C271.105408,263.424805 270.424133,264.100616 266.999878,264.095856 
	C179.666702,263.974274 92.333298,263.974274 5.000134,264.095856 
	C1.575879,264.100616 0.899150,263.424164 0.904078,259.999847 
	C1.026418,175.000031 1.026418,89.999962 0.904078,5.000138 
	C0.899150,1.575848 1.575879,0.899378 5.000134,0.904145 
	C92.333298,1.025718 179.666702,1.025718 266.999878,0.904145 
	C270.424133,0.899378 271.121735,1.572794 271.100128,5.000631 
	C270.922729,33.166180 271.000000,61.333332 271.000000,90.000000 
z"/>
<path fill="#FFCA29" opacity="1.000000" stroke="none" 
	d="
M39.086487,248.256134 
	C31.115746,243.817673 24.853394,238.114944 20.057911,230.422119 
	C17.238342,224.006210 13.574096,218.275787 12.677610,211.066360 
	C12.338914,209.177307 12.844930,207.595810 11.885654,205.855530 
	C10.311822,204.155701 10.932480,202.381897 10.834377,200.389343 
	C11.311097,199.900787 11.437856,199.641953 11.102250,199.110168 
	C10.448612,195.176285 11.031084,191.470703 11.972235,187.386597 
	C14.338335,181.538483 15.950017,175.847626 18.764103,170.235794 
	C18.945919,169.913452 18.988388,169.986359 18.949734,169.969467 
	C19.762472,169.381882 20.179150,168.496445 20.797272,167.396866 
	C26.336739,157.670197 34.694244,151.654343 44.648064,147.042877 
	C47.738693,146.906128 50.018288,145.432251 52.739258,144.314255 
	C54.704823,143.593124 56.636536,144.062057 58.601227,142.956100 
	C64.427391,143.522049 69.912674,142.369019 75.678177,143.197845 
	C79.201294,143.584702 82.467796,143.954117 85.538834,144.935318 
	C97.152130,148.645767 106.397346,155.723114 113.864868,165.698059 
	C115.016106,167.432922 115.273232,169.291122 116.858521,170.734436 
	C117.121094,170.932053 117.037537,170.980606 117.055573,170.935776 
	C118.726418,173.964218 119.439636,177.457596 121.541122,180.703964 
	C123.703728,185.543396 124.347794,190.377029 124.669403,195.672302 
	C122.108147,196.021591 120.930565,193.995544 119.428268,192.542679 
	C110.492622,183.901031 102.062851,174.745117 92.570877,166.192566 
	C92.109848,165.872238 91.929276,165.742096 91.485947,165.414642 
	C89.325043,163.846130 87.334846,163.923859 85.060638,165.045410 
	C83.936127,166.079239 83.053711,166.919434 82.073334,168.074371 
	C81.565620,168.790344 81.295662,169.300812 81.060028,170.147888 
	C80.831604,171.006577 80.599442,171.548080 80.123520,172.299637 
	C79.628807,173.029160 79.333603,173.532532 79.082932,174.390778 
	C78.702621,175.912369 78.171936,177.034073 77.225922,178.300598 
	C76.655983,179.056976 76.302620,179.578217 75.939224,180.469818 
	C75.324074,182.033112 74.981949,183.378036 73.561310,184.454102 
	C70.721733,185.152084 69.295792,183.381714 67.792015,181.911560 
	C63.677094,177.888580 59.630486,173.795944 55.338943,169.478424 
	C54.951035,169.088104 54.800720,168.930511 54.439186,168.532318 
	C54.098522,168.127335 53.969082,167.962967 53.661942,167.546997 
	C53.147720,166.798767 52.797832,166.313263 52.090298,165.741135 
	C51.667873,165.446869 51.493443,165.330536 51.052078,165.036819 
	C48.875057,164.134155 46.970093,163.719406 45.047859,165.274719 
	C48.458858,174.424240 53.695538,182.332962 58.023548,190.710724 
	C59.549126,193.663803 61.129711,196.558167 62.129738,200.137543 
	C63.113972,204.054840 61.317482,205.249100 58.094082,205.316269 
	C54.995628,205.380844 51.893314,205.206955 48.473885,205.582687 
	C47.958366,205.816208 47.767471,205.934219 47.333321,206.276672 
	C46.139019,207.602982 46.084011,208.858734 46.624672,210.459900 
	C46.918259,210.902908 47.044224,211.073990 47.377079,211.491333 
	C47.730553,211.898315 47.877144,212.059006 48.251453,212.458450 
	C50.230213,214.455933 52.526707,215.880447 52.050053,219.140320 
	C50.672379,220.207184 49.287300,220.090378 47.690334,220.432343 
	C46.556503,220.941284 46.275459,221.623489 46.519592,222.800797 
	C46.782536,223.449921 46.957687,223.806274 47.292191,224.409393 
	C47.530048,224.833786 47.619915,225.005829 47.840500,225.434814 
	C48.333206,226.412567 48.896439,226.921906 49.910362,227.411896 
	C57.688217,233.916458 64.254745,241.211456 71.174591,248.145493 
	C72.004929,248.977509 72.565590,250.010086 72.594925,251.625473 
	C71.690262,254.789001 69.851738,255.738342 66.932297,255.615570 
	C57.232735,255.207703 48.109688,252.766586 39.086487,248.256134 
z"/>
<path fill="#BA68C8" opacity="1.000000" stroke="none" 
	d="
M240.957855,156.516785 
	C243.294327,157.638336 244.744553,159.358521 246.328186,161.402405 
	C246.122269,165.994522 248.277985,169.044128 251.531387,171.396271 
	C253.578384,172.876175 254.508469,174.599533 254.747452,177.182632 
	C255.210083,182.183167 258.826874,186.195801 259.564270,191.201843 
	C259.916046,193.590027 260.666351,195.893967 257.114075,196.915741 
	C254.381958,196.764252 252.941940,195.089432 251.434616,193.583389 
	C243.724762,185.879944 235.968216,178.222946 228.102264,170.183411 
	C227.714905,169.752945 227.563782,169.578537 227.182297,169.149719 
	C226.487640,168.365189 225.904602,168.006149 224.921539,167.605133 
	C220.578979,166.288269 216.530960,165.398575 212.330368,165.364563 
	C200.216095,165.266510 192.229019,172.688187 191.410934,184.784500 
	C191.131073,188.922485 191.848053,193.104584 190.679581,197.545135 
	C188.755920,199.939743 185.935989,198.647339 183.773590,200.245544 
	C183.223267,202.034744 183.186539,203.541626 183.787903,205.355240 
	C184.937881,208.688141 188.288040,209.841049 189.670044,213.014618 
	C190.436722,217.572906 188.651321,221.037247 185.426529,223.238220 
	C181.886063,225.654633 180.681427,228.490982 181.634079,232.815765 
	C181.925537,233.803802 182.163483,234.440811 182.725281,235.299133 
	C187.664017,240.784973 192.850677,245.553391 197.740952,250.613342 
	C199.089218,252.008392 200.752167,253.189697 201.129700,255.590118 
	C173.844345,256.480804 148.641815,232.294067 146.883499,203.474136 
	C148.098862,200.929230 147.326309,198.675720 147.154053,196.210770 
	C146.889420,195.198425 146.881195,194.459885 146.957245,193.360062 
	C149.831955,190.385834 149.378754,186.521912 150.424011,183.315964 
	C153.694061,173.286194 160.476486,165.895554 167.561295,158.743439 
	C174.454224,151.785034 182.054932,145.723633 192.238266,144.079208 
	C194.568573,143.702927 196.545761,143.342346 198.853699,144.691620 
	C201.845749,146.440842 205.279419,146.269012 208.402725,144.620621 
	C209.915558,143.822189 211.268768,142.948380 213.040680,143.749863 
	C217.079773,145.576859 221.702286,145.385590 226.032425,147.278717 
	C227.445312,147.550735 228.519257,147.931610 229.835373,148.555145 
	C232.820908,152.426971 236.006989,155.453064 240.957855,156.516785 
z"/>
<path fill="#8BC349" opacity="1.000000" stroke="none" 
	d="
M11.392105,72.214500 
	C11.101932,70.941612 10.975640,69.873329 10.896229,68.402237 
	C13.122685,66.327469 14.332938,64.569077 11.186649,62.222694 
	C10.974423,60.873272 11.013924,59.745857 11.184851,58.305267 
	C11.508640,57.942020 11.701002,57.891949 12.114532,57.647461 
	C12.811730,56.930790 12.583780,56.364433 12.384335,55.492645 
	C12.350827,54.752323 12.457867,54.344173 12.677040,53.633476 
	C12.288249,52.769642 12.441045,52.292343 13.163657,51.841339 
	C16.237326,50.450500 15.982944,47.451397 17.014246,45.128422 
	C18.954029,40.759132 21.003044,36.452713 24.146837,32.768799 
	C25.060801,31.697809 26.545910,30.489782 23.882957,29.141045 
	C25.603449,25.672295 28.436712,23.321507 31.582554,20.838982 
	C32.924744,22.360577 33.989582,22.928528 35.756882,21.425692 
	C40.682819,17.236879 45.993942,13.700015 52.607025,12.774672 
	C54.452812,12.516397 54.575321,10.739768 55.760422,9.439007 
	C69.501572,6.177963 82.333908,8.026053 94.777969,14.717127 
	C94.813660,17.719564 92.924591,16.493126 91.823196,16.079966 
	C89.340408,15.148600 86.876221,14.140103 84.323845,13.205585 
	C101.852242,19.908941 114.194633,31.626886 119.928177,49.775627 
	C119.012947,47.493114 118.281425,45.151821 117.478081,42.834351 
	C116.633141,40.396885 114.476189,38.283028 115.843536,35.118332 
	C120.665703,41.257904 123.068680,48.444927 124.116974,56.555740 
	C123.969963,57.164883 123.845665,57.353863 123.465744,57.763653 
	C121.850273,58.595699 121.301582,59.658081 121.446854,61.120407 
	C121.479103,61.445053 121.541916,62.048557 121.576477,62.042969 
	C122.421005,61.906448 121.890724,61.030518 122.482132,60.334999 
	C123.034683,59.730305 123.465248,59.603767 124.238113,59.823822 
	C124.630013,62.714668 124.728279,65.411644 124.719971,68.547729 
	C124.099525,69.599449 123.412346,69.763863 122.298035,69.683075 
	C119.516190,68.758492 117.792587,66.951721 116.035721,65.199661 
	C109.240265,58.422787 102.456413,51.634274 95.676582,44.841770 
	C94.151665,43.313999 92.611893,41.817783 90.338455,40.704792 
	C89.368439,39.933384 89.064369,39.095558 88.442665,38.097717 
	C87.463593,36.856739 86.324745,36.374489 84.956711,35.664597 
	C84.501549,35.389431 84.324684,35.268681 83.655334,34.726974 
	C82.098747,33.222355 81.066788,32.106861 79.718567,30.845325 
	C77.683037,28.740549 75.857498,26.887098 73.752487,24.855625 
	C72.615005,23.736347 71.805130,22.739004 70.435165,21.901386 
	C68.720764,21.196732 67.341949,21.029659 65.991516,22.583809 
	C64.938431,24.882565 65.326027,26.914818 65.812271,29.322395 
	C65.897186,31.558676 64.961586,32.651619 62.797485,33.156696 
	C61.363132,33.332851 60.330902,33.247334 58.948921,32.939507 
	C53.808914,30.706835 50.814796,33.954128 47.707134,36.581776 
	C46.080360,37.957275 44.743298,39.672855 44.113041,41.856873 
	C44.969585,41.764076 45.711666,41.322735 46.843918,41.735123 
	C47.750950,44.000484 46.481697,45.636330 45.640358,47.724205 
	C45.111626,48.360981 44.740505,48.649071 44.026390,49.044113 
	C41.495541,53.112446 43.687675,59.135502 48.528053,61.437103 
	C49.286167,61.248451 49.728138,61.214703 50.503792,61.323608 
	C52.109348,61.931667 52.969074,62.988304 54.195129,64.115952 
	C55.059605,64.966652 55.650784,65.621056 56.541985,66.444870 
	C58.819862,68.719940 60.851574,70.772125 63.148991,73.034210 
	C64.017677,73.918121 64.609535,74.597130 65.261803,75.655365 
	C65.454453,76.181946 65.496460,76.403870 65.528137,76.962738 
	C65.171913,79.050575 65.057961,80.798874 65.642532,82.885406 
	C65.746246,83.715706 65.708878,84.195755 65.467499,85.020828 
	C65.026016,85.794678 64.665878,86.155060 63.892319,86.627090 
	C61.138859,87.424217 58.867310,87.447044 56.835335,85.083847 
	C55.171841,80.781601 52.303875,79.259933 47.890152,80.111572 
	C47.420307,80.377792 47.231503,80.479385 46.753922,80.711403 
	C46.077087,80.999924 45.695808,81.172844 45.082840,81.562744 
	C43.838364,83.414383 44.224640,85.177719 44.567574,87.208649 
	C45.016998,88.005844 45.378143,88.484055 46.034103,89.095825 
	C46.395977,89.420479 46.540195,89.550659 47.125526,90.061523 
	C47.879887,90.679176 48.197212,90.910553 48.767590,91.309349 
	C49.169792,91.617867 49.322838,91.753624 49.676838,92.123886 
	C50.380745,93.024292 50.851250,93.716339 51.684460,94.537659 
	C55.483173,98.394127 59.105152,101.960045 62.922684,105.801735 
	C63.764824,106.648697 64.345604,107.286880 65.294312,107.996841 
	C65.881310,108.459900 66.192345,108.753777 66.697624,109.311195 
	C67.695198,110.604874 68.565041,111.576553 69.815178,112.668243 
	C71.695641,115.363770 75.601608,116.371338 74.501877,120.546402 
	C71.391869,121.242943 68.587250,120.912277 65.434875,120.923859 
	C63.191620,121.127007 62.581104,117.151543 59.878159,119.629959 
	C59.334995,120.171661 58.968613,120.404335 58.286797,120.749306 
	C57.841560,120.955238 57.667542,120.977745 57.239601,120.930939 
	C55.735558,119.723923 53.872364,119.944756 52.358292,118.609253 
	C51.385857,116.703896 49.961029,116.008980 48.377007,115.364197 
	C33.583412,109.342415 23.266588,98.732689 16.818571,84.251007 
	C16.009039,82.432877 15.211432,80.645058 13.770285,78.797165 
	C12.863708,77.577545 12.502204,76.520706 12.512238,75.034485 
	C12.526198,74.342072 12.548666,73.958557 12.462289,73.337646 
	C12.079395,72.881821 11.814003,72.654778 11.392105,72.214500 
z"/>
<path fill="#26C6DA" opacity="1.000000" stroke="none" 
	d="
M167.749298,20.956871 
	C167.940140,20.371780 168.107391,20.155487 168.586655,19.971905 
	C170.877914,19.035748 172.747726,17.798094 174.706787,16.118551 
	C174.895935,15.838976 174.975677,15.931313 174.918472,15.910132 
	C180.863785,13.095701 187.015274,10.808511 193.564606,9.559872 
	C196.276642,9.042813 198.757889,8.627626 201.152679,10.339311 
	C202.127686,11.036190 203.414368,11.733597 204.390808,11.024847 
	C210.037796,6.925955 215.549667,10.144476 221.062119,11.231153 
	C222.811920,11.576094 224.531281,12.303999 226.616272,12.974726 
	C243.666992,20.718113 254.521439,33.313286 259.053467,51.593601 
	C258.470703,52.520023 258.427948,53.089588 259.229401,53.809662 
	C259.684814,54.444000 259.829773,54.963840 259.945343,55.757568 
	C259.843475,60.025677 260.487274,64.046410 259.243439,68.313156 
	C256.081757,70.492569 254.751740,67.814995 253.265961,66.358704 
	C243.783707,57.064644 234.464554,47.605141 224.785034,38.000347 
	C223.528351,36.738247 222.588501,35.663361 221.148285,34.596012 
	C205.362503,26.612167 183.117538,29.205570 174.548767,48.719044 
	C173.947327,50.088650 173.234665,51.414959 172.017212,52.825493 
	C170.803772,53.985451 169.304810,53.954433 168.239441,55.240669 
	C167.446243,56.771805 166.769791,58.025482 166.939026,59.805023 
	C167.732224,61.944981 169.408966,63.078575 170.555847,65.005920 
	C171.278885,67.285301 170.705307,68.846230 169.061340,70.086899 
	C167.839600,71.008934 166.889801,72.129684 167.086609,74.124939 
	C168.169785,76.493301 170.016418,77.804749 171.794205,79.628716 
	C172.212433,80.015274 172.377991,80.172676 172.788025,80.572060 
	C173.192902,80.978928 173.353302,81.143829 173.749573,81.561806 
	C177.984985,88.418251 183.003555,94.006615 190.124237,97.986755 
	C191.973541,99.837608 193.528259,101.496300 195.443726,103.278625 
	C200.620117,108.614265 205.790833,113.474564 210.856201,118.926216 
	C211.301056,119.620110 211.425522,120.065468 211.345947,120.873932 
	C195.218430,123.917259 181.090012,119.465889 168.414246,109.755585 
	C162.483276,105.212151 157.537064,99.755547 153.959534,92.770836 
	C153.629211,91.376854 153.169067,90.396378 152.308395,89.257103 
	C148.641464,82.762657 147.137619,75.995438 146.824860,68.494400 
	C148.150589,65.972679 147.283096,63.711357 147.185959,61.252388 
	C147.014343,59.932495 147.089157,58.894180 147.357758,57.603630 
	C149.354187,55.271133 148.106644,52.333973 149.656433,49.739487 
	C148.965988,44.772778 151.667511,41.291031 153.463943,37.579258 
	C155.121185,34.155083 157.385818,31.081474 160.158234,28.021696 
	C161.698593,27.599640 162.109726,26.537527 162.802933,25.287296 
	C163.513885,24.438784 164.018860,23.850954 164.791168,23.141129 
	C165.817566,22.291031 166.956665,22.110781 167.749298,20.956871 
z"/>
<path fill="#02838F" opacity="1.000000" stroke="none" 
	d="
M224.741455,36.767410 
	C235.863480,47.556664 246.626175,58.145824 257.684082,68.889725 
	C258.633179,69.167145 259.057465,69.581993 259.440308,70.434021 
	C259.489532,71.331505 259.463379,71.933334 259.780640,72.762177 
	C258.218872,94.065559 241.562912,113.045151 218.358627,119.957581 
	C215.748627,119.602905 213.652008,120.855095 211.107971,120.282394 
	C205.610352,114.963188 200.427475,109.839142 195.083496,104.427231 
	C194.878387,100.723419 197.527908,100.941887 199.705994,100.702591 
	C202.931488,100.348213 206.224960,101.066826 209.741791,99.935928 
	C212.392990,98.489204 214.973358,97.917984 217.433624,97.022316 
	C219.276443,96.351448 220.628876,95.315468 220.660507,93.186203 
	C220.676926,92.082527 221.164719,90.732063 219.996109,90.014694 
	C219.054337,89.436584 218.157150,90.316971 217.301498,90.728371 
	C215.093353,91.790039 212.977631,93.130875 210.005554,92.831070 
	C206.198563,92.043480 202.725235,92.303665 198.894638,92.615715 
	C195.417923,93.041824 193.007431,91.413849 190.351685,89.604034 
	C189.603943,88.946785 190.457077,87.684990 188.840332,87.697144 
	C187.527054,87.315140 186.757919,86.658638 185.991150,85.547905 
	C185.723816,84.919411 185.685410,84.545204 185.970520,83.996605 
	C186.040268,83.716873 185.901474,83.602982 185.567291,83.298668 
	C185.246964,82.972603 185.122025,82.836945 184.818146,82.482117 
	C184.530090,82.103615 184.421021,81.944283 184.159088,81.533264 
	C183.800674,80.929604 183.596970,80.576546 183.232681,79.937531 
	C182.975128,79.447922 182.880005,79.243217 182.675095,78.709435 
	C182.023727,75.643486 183.782578,75.019196 185.906235,74.804680 
	C188.314575,74.561409 190.748169,74.872757 193.472260,74.397827 
	C194.198486,74.092918 194.599152,73.896347 195.257690,73.489258 
	C196.330750,72.303642 198.445465,71.244057 194.993225,70.454132 
	C191.448441,70.526527 188.287384,70.622498 185.132156,70.476173 
	C179.405777,70.210602 178.425110,68.954437 179.275848,62.556389 
	C181.662018,59.980404 184.466751,60.780655 187.057281,60.635033 
	C190.872879,60.420544 194.713577,60.959568 198.833466,60.087181 
	C200.189972,58.638874 201.024963,57.299492 200.752014,55.279449 
	C197.058945,53.730110 193.406677,54.629482 189.820770,54.369236 
	C187.544449,54.204033 185.170181,54.711899 182.828552,53.021149 
	C181.262589,49.819050 182.771317,47.573246 184.362473,45.392750 
	C191.390762,35.761326 203.826981,33.006062 215.782349,38.474220 
	C218.092606,39.530888 220.365738,41.248528 221.746979,36.925858 
	C222.798248,36.251366 223.586746,36.286755 224.741455,36.767410 
z"/>
<path fill="#7B20A2" opacity="1.000000" stroke="none" 
	d="
M227.880142,168.990768 
	C237.253967,177.760300 246.357162,186.719162 255.756439,195.830612 
	C257.458252,196.985947 259.175629,197.665070 259.824768,199.902283 
	C260.027496,201.992157 260.061035,203.713272 259.859802,205.719238 
	C260.688568,207.411987 258.979675,208.074875 259.020752,209.646179 
	C258.993927,210.452698 259.002594,210.901947 259.039703,211.687408 
	C256.833160,224.020630 250.477417,233.610672 241.390533,241.907501 
	C240.525879,242.398132 239.920242,242.696487 239.247147,243.453613 
	C238.129608,244.277176 236.935776,244.507095 236.309479,245.866943 
	C235.370682,246.004318 234.842514,246.234558 234.252075,246.917786 
	C234.102051,247.173035 234.066635,247.082031 234.113861,247.094437 
	C232.965912,247.700058 231.654861,248.013596 230.257263,248.890106 
	C230.043060,249.144928 230.039871,249.056641 230.083084,249.065781 
	C229.595520,249.382614 228.986877,249.468323 228.225525,249.904465 
	C228.030960,250.135605 228.052963,250.049438 228.092316,250.070129 
	C226.977158,250.711899 225.692093,251.014069 224.257660,251.776733 
	C223.026947,252.421051 222.050644,252.861389 220.754150,253.210678 
	C216.615326,254.412872 212.632782,254.873337 208.339081,255.664276 
	C205.968201,255.981216 203.928406,256.068817 201.463669,256.041626 
	C194.780426,249.490326 188.522110,243.053879 182.095551,236.329681 
	C183.782791,234.101318 186.216705,234.653580 188.458588,234.629379 
	C200.320969,234.501419 212.185150,234.747070 224.437805,234.401276 
	C225.057709,234.201904 225.287323,234.091949 225.806793,233.755249 
	C228.231354,231.795975 228.352707,229.877975 226.336517,227.582275 
	C225.833527,227.252533 225.619324,227.130188 225.054230,226.858826 
	C216.487854,225.988449 208.254974,226.587280 200.032913,226.380676 
	C197.743637,226.323151 195.405838,226.653854 192.878876,225.398499 
	C191.038422,223.685547 192.004684,222.396835 192.952972,221.240494 
	C194.865738,218.908096 196.169830,216.207321 197.933228,213.326294 
	C199.505386,207.684479 203.088928,206.055023 208.253250,206.603394 
	C210.540115,206.846222 212.912857,206.881500 215.526276,206.109741 
	C216.043594,205.798355 216.243301,205.669083 216.742218,205.363419 
	C219.018372,204.152130 219.188187,202.734818 217.665909,200.788483 
	C217.218887,200.419250 217.030411,200.275665 216.534592,199.936859 
	C210.698868,198.604889 205.000916,200.251846 199.146820,198.491974 
	C196.932114,190.132080 196.026443,182.105072 201.622162,174.492950 
	C202.373596,173.986282 202.841782,173.798660 203.690735,173.656494 
	C204.258072,173.548233 204.476852,173.476425 205.012222,173.274139 
	C206.182922,172.807602 206.980499,172.369995 208.017380,171.626236 
	C213.082474,169.843094 217.552551,170.771774 222.158859,173.168854 
	C222.934906,173.681946 223.066803,174.346298 223.878571,174.599426 
	C224.689163,174.485626 225.239365,174.470978 226.009155,174.190903 
	C227.099808,172.525345 226.548218,170.625137 227.880142,168.990768 
z"/>
<path fill="#FF6F03" opacity="1.000000" stroke="none" 
	d="
M92.134369,165.018951 
	C97.559135,168.258347 101.183449,173.046936 105.440483,177.151672 
	C111.751099,183.236511 117.869064,189.521133 124.330505,195.901611 
	C127.646355,223.623871 105.477402,251.282471 76.643433,255.355927 
	C74.338112,254.705521 73.051895,253.446793 72.157837,251.300735 
	C64.539230,243.426071 57.069256,235.866318 49.306999,228.150452 
	C48.434067,227.514755 47.716244,227.180283 47.186035,226.232819 
	C46.995827,226.019623 46.979149,225.566315 46.971737,225.339630 
	C51.610237,222.281433 56.585693,223.533508 61.435123,224.128876 
	C63.842018,224.424362 64.125168,226.785980 64.492180,228.763306 
	C64.858604,230.737503 65.603569,232.288773 67.988525,232.139664 
	C70.302444,231.995041 70.462128,230.176331 70.565498,228.534073 
	C70.813255,224.597855 73.310448,223.762909 76.670425,223.520874 
	C79.975014,223.282822 83.539337,224.515137 86.661972,222.333298 
	C86.035301,220.338638 84.516151,220.638077 83.291077,220.533051 
	C81.305405,220.362808 79.303337,220.505798 77.309975,220.412811 
	C73.861679,220.251984 70.891129,219.381165 70.851891,215.159698 
	C70.812004,210.867615 74.016678,210.711105 77.117195,210.569763 
	C79.275925,210.471344 81.441475,210.617371 83.597664,210.449387 
	C85.320801,210.315155 86.975014,210.023926 87.171387,207.430161 
	C85.973473,204.191925 83.452278,205.659836 81.510918,205.386230 
	C78.644051,204.982147 75.434769,206.151978 72.933876,203.068466 
	C72.298859,201.559052 72.485283,200.384567 73.043396,199.366333 
	C79.305725,187.941116 84.807114,176.100571 92.134369,165.018951 
z"/>
<path fill="#33691E" opacity="1.000000" stroke="none" 
	d="
M90.176399,39.543060 
	C92.829956,39.540936 93.893494,41.444229 95.262840,42.789875 
	C103.992096,51.367985 112.673935,59.994358 121.631470,68.797592 
	C122.368935,69.293205 122.869766,69.562256 123.403305,70.212410 
	C123.519829,70.845245 123.560623,71.216522 123.838394,71.791000 
	C123.074028,83.977615 118.177353,93.936157 109.943581,102.791626 
	C101.022820,112.385963 90.736580,118.894791 77.397423,121.047424 
	C76.779152,120.738541 76.510750,120.577942 75.949593,120.494888 
	C75.710388,120.482964 75.234116,120.413773 75.117790,120.203125 
	C73.082756,117.907906 71.164047,115.823349 69.100739,113.447464 
	C68.496284,112.429344 68.274925,111.632256 68.317108,110.366333 
	C70.519318,105.365265 69.099968,100.409019 69.928726,95.287697 
	C70.172478,94.406204 70.398651,93.944992 70.951790,93.249062 
	C71.594749,92.695412 72.015923,92.479118 72.812500,92.306046 
	C74.232376,92.315857 75.228241,92.082001 76.334427,91.141251 
	C79.424850,89.561913 82.409332,88.534470 84.809212,86.336060 
	C93.150719,78.694778 90.879608,66.584824 80.316574,62.719997 
	C78.605782,62.094048 76.775764,61.798523 74.852585,60.673103 
	C73.402199,59.354897 71.680176,59.172173 70.371979,57.633396 
	C69.051567,52.392632 69.409462,47.484463 70.004196,42.173965 
	C71.824387,38.982628 74.393318,40.321400 77.061279,40.317780 
	C78.172653,40.196472 78.894455,40.274899 79.908035,40.662109 
	C80.797394,41.126396 81.338760,41.520390 82.315605,41.733852 
	C84.335785,41.951748 85.841652,42.932102 87.841591,42.866943 
	C89.108650,41.901901 88.952393,40.426929 90.176399,39.543060 
z"/>
<path fill="#BB69C8" opacity="1.000000" stroke="none" 
	d="
M226.156952,146.933838 
	C225.965561,147.664673 225.559784,148.159485 225.153992,148.654297 
	C222.091339,146.042343 217.779831,147.644012 214.581970,145.530975 
	C212.843246,144.382095 211.699356,143.831573 209.447464,145.522766 
	C205.849121,148.225159 201.253769,148.112320 197.511261,145.527817 
	C195.845093,144.377197 194.906876,144.209503 193.175888,144.856857 
	C190.713974,145.777542 188.136337,146.487122 185.547516,146.941391 
	C183.136017,147.364532 181.359512,148.247620 179.760117,150.271133 
	C176.488831,154.409836 171.181442,156.026321 167.542496,160.045715 
	C162.076401,166.083282 157.700714,172.894653 152.555267,179.133011 
	C154.687271,182.969925 148.987396,185.333710 150.704910,189.355560 
	C151.291794,190.729889 149.102829,191.977097 147.382965,192.941010 
	C147.745880,170.289551 168.443558,147.459900 192.323334,143.089523 
	C203.878296,140.974777 215.140747,141.726059 226.156952,146.933838 
z"/>
<path fill="#8BC34B" opacity="1.000000" stroke="none" 
	d="
M116.085068,34.907200 
	C116.648926,40.245255 120.064941,44.648808 121.080063,49.849293 
	C121.315910,51.057545 122.791618,52.818096 121.229942,53.362179 
	C119.208557,54.066418 119.359566,51.815102 118.908646,50.453918 
	C113.443634,33.957123 103.006035,22.085047 86.611229,15.699351 
	C84.400711,14.838367 82.416687,13.395916 79.267181,11.627040 
	C85.785782,10.907397 89.718315,15.084858 94.817398,15.218258 
	C96.236412,15.624608 97.452576,16.288244 98.859833,17.180645 
	C99.215118,18.197727 99.774933,18.510929 100.811470,18.777855 
	C101.118202,18.935726 101.033173,18.948362 101.050064,18.908836 
	C101.617783,19.802498 102.558281,20.194740 103.708145,20.813168 
	C107.185867,23.008512 109.570747,25.893946 111.994720,29.100630 
	C112.123260,29.900492 112.334518,30.320782 113.039520,30.787498 
	C113.676453,30.967285 113.879402,31.134031 114.028732,31.614866 
	C114.564796,32.739189 114.856293,33.777893 115.863800,34.743820 
	C116.120102,34.928982 116.064827,34.927784 116.085068,34.907200 
z"/>
<path fill="#8BC34B" opacity="1.000000" stroke="none" 
	d="
M13.766263,78.311531 
	C18.379057,80.404221 18.137377,85.495148 20.400091,89.154663 
	C25.166792,96.863892 30.891653,103.548752 38.360497,108.632393 
	C42.015869,111.120415 45.550682,113.956589 50.183819,114.680511 
	C51.468281,114.881210 52.626945,115.761513 52.958359,117.641869 
	C49.971809,119.562439 47.672226,117.203186 45.099861,116.457466 
	C43.207489,115.908882 41.630962,114.493584 39.267891,114.148537 
	C32.977993,110.491226 27.513515,106.263077 23.101355,100.363007 
	C22.343624,99.239067 22.150675,98.150688 21.100880,97.263931 
	C20.840437,97.095863 20.929451,97.037605 20.914043,97.088516 
	C20.446249,96.210205 20.125271,95.207764 19.146309,94.243713 
	C18.900827,94.052246 18.980646,94.016556 18.960972,94.055595 
	C17.056427,88.964142 13.767828,84.325462 13.766263,78.311531 
z"/>
<path fill="#BB69C8" opacity="1.000000" stroke="none" 
	d="
M259.171051,199.952820 
	C258.139923,198.620804 257.224030,197.571411 256.180328,196.252594 
	C259.543915,196.148895 259.250916,193.880173 258.702545,191.660614 
	C258.310791,190.075012 257.571930,188.577759 257.033295,187.025345 
	C255.604279,182.906982 252.584076,179.485291 253.099762,174.401443 
	C253.241409,173.004990 248.263672,170.839645 246.406113,168.016632 
	C245.085556,166.009735 244.400467,164.283859 246.145050,161.928757 
	C256.216278,172.375458 260.950653,184.937759 260.580444,199.825745 
	C260.053162,200.441788 259.666992,200.419739 259.171051,199.952820 
z"/>
<path fill="#25C6DA" opacity="1.000000" stroke="none" 
	d="
M226.727478,12.779348 
	C222.252563,14.027348 218.423904,10.513147 213.858429,10.371119 
	C211.093201,10.285097 208.353790,9.074404 206.213409,12.015368 
	C205.218979,13.381772 202.902191,13.599392 202.138199,12.739250 
	C197.340714,7.337931 192.163284,11.639052 187.339417,12.152328 
	C183.353424,12.576450 179.539963,14.622148 175.255661,15.919140 
	C191.481537,5.832000 208.725235,5.416845 226.727478,12.779348 
z"/>
<path fill="#8BC34B" opacity="1.000000" stroke="none" 
	d="
M23.469027,28.964123 
	C25.004126,29.485518 26.697754,27.224342 27.660797,29.042368 
	C28.524223,30.672337 26.705290,31.613394 25.791307,32.710400 
	C22.093964,37.148117 19.207634,42.005737 17.592934,47.615986 
	C17.090210,49.362690 17.036871,51.783009 13.845737,51.848892 
	C13.444894,51.834972 13.522664,51.695839 13.554859,51.768745 
	C13.269002,50.107948 13.984410,48.461147 14.030664,46.388687 
	C14.593002,44.530239 15.139295,43.039845 15.884455,41.267731 
	C16.834425,40.263622 17.245277,39.334820 17.760616,38.118649 
	C17.870703,37.834679 17.913706,37.942852 17.855797,37.948692 
	C18.471102,37.613728 18.503704,36.931297 18.797066,36.020317 
	C19.121634,35.245430 19.318722,34.770164 19.728785,34.137451 
	C21.125420,32.991646 22.115177,31.857777 22.782875,30.083370 
	C22.929562,29.488873 23.048235,29.242580 23.469027,28.964123 
z"/>
<path fill="#8BC34B" opacity="1.000000" stroke="none" 
	d="
M55.686111,9.162809 
	C56.269135,12.060571 55.454506,13.840579 52.131626,14.189598 
	C45.115089,14.926580 40.100048,19.553373 34.856087,23.649548 
	C33.939068,24.365850 33.009762,25.417105 31.845791,24.609297 
	C30.551853,23.711290 32.047520,22.521875 31.905422,21.079794 
	C31.973114,20.407389 32.150574,20.186541 32.645889,19.999199 
	C33.748085,19.402409 34.808437,19.145658 35.712158,18.083496 
	C35.870407,17.811171 35.971554,17.904158 35.905888,17.883976 
	C36.801422,17.469814 37.785084,17.117096 38.744019,16.129932 
	C38.927170,15.877314 38.982140,15.966038 38.935547,15.942528 
	C43.323650,13.886891 47.883846,12.168097 52.729118,10.238480 
	C53.789989,9.707082 54.579678,9.421201 55.686111,9.162809 
z"/>
<path fill="#FFC823" opacity="1.000000" stroke="none" 
	d="
M71.862816,251.316742 
	C73.304199,252.228333 74.599190,253.470810 76.062317,255.017975 
	C76.230438,255.322662 76.258316,255.436142 76.214172,255.474396 
	C75.959480,255.493851 75.748940,255.475052 75.258942,255.606018 
	C62.253353,257.357880 50.299004,255.083939 38.941856,248.363480 
	C44.716976,248.662018 49.699261,252.385666 55.610649,253.480713 
	C59.693569,254.237045 63.855419,253.394547 67.893715,254.828903 
	C70.049324,255.594543 70.829178,253.212296 71.862816,251.316742 
z"/>
<path fill="#BB69C8" opacity="1.000000" stroke="none" 
	d="
M241.121246,156.227386 
	C240.700653,157.668915 239.109375,158.536362 238.568909,157.821457 
	C236.136871,154.604385 230.617569,154.608124 230.058716,149.187225 
	C234.246002,150.356079 237.524185,153.265839 241.121246,156.227386 
z"/>
<path fill="#85C040" opacity="1.000000" stroke="none" 
	d="
M13.869955,77.681526 
	C14.333088,83.535706 18.053711,87.969872 18.953362,93.703659 
	C14.355420,87.725700 12.274168,80.442413 11.198329,72.406448 
	C11.623760,72.006531 12.019298,72.003166 12.711538,71.999771 
	C13.381014,72.384117 13.528071,72.841118 13.237888,73.683044 
	C13.260066,75.117348 13.493766,76.239357 13.869955,77.681526 
z"/>
<path fill="#FFC71D" opacity="1.000000" stroke="none" 
	d="
M12.764833,210.736237 
	C15.316309,217.106796 17.645933,223.215439 19.972351,229.710007 
	C15.870544,224.621048 13.378923,218.445755 12.040578,211.390198 
	C12.241441,210.818604 12.392211,210.646454 12.764833,210.736237 
z"/>
<path fill="#82BE3C" opacity="1.000000" stroke="none" 
	d="
M39.091911,114.480011 
	C40.523342,112.067375 41.848190,114.064888 43.108551,114.621407 
	C46.085339,115.935822 48.938366,117.532356 52.613838,117.993927 
	C53.779827,119.628616 56.248631,118.282120 56.924759,120.529953 
	C50.682175,120.000717 44.969376,117.419266 39.091911,114.480011 
z"/>
<path fill="#82BE3C" opacity="1.000000" stroke="none" 
	d="
M74.543320,119.995789 
	C75.001465,119.992470 75.377014,120.032890 75.565758,120.039467 
	C75.933189,120.174889 76.111870,120.303734 76.177872,120.743210 
	C70.324280,122.581413 64.567032,122.171532 58.410309,121.066101 
	C58.117527,120.620636 58.303745,120.371567 58.788132,120.084114 
	C60.309544,118.918251 61.718487,118.682396 63.624893,119.725227 
	C67.360390,119.991661 70.722786,119.995392 74.543320,119.995789 
z"/>
<path fill="#FFC820" opacity="1.000000" stroke="none" 
	d="
M18.675117,170.122330 
	C17.773825,175.870193 15.127011,181.293625 12.471977,186.916061 
	C12.957506,180.963303 15.289427,175.499573 18.675117,170.122330 
z"/>
<path fill="#31C9DC" opacity="1.000000" stroke="none" 
	d="
M259.260498,71.124939 
	C258.794708,70.338722 258.495056,69.924095 258.087341,69.276978 
	C260.163177,65.098785 258.191742,60.688290 259.641968,56.330673 
	C261.402405,60.761688 260.993896,65.575783 260.348816,70.753548 
	C259.906342,71.242661 259.666473,71.369598 259.260498,71.124939 
z"/>
<path fill="#FFC71D" opacity="1.000000" stroke="none" 
	d="
M75.624756,142.817230 
	C70.616310,145.091492 65.073067,143.848801 59.280426,143.283936 
	C64.382233,141.681335 69.796501,141.779205 75.624756,142.817230 
z"/>
<path fill="#8BC349" opacity="1.000000" stroke="none" 
	d="
M52.615196,9.985419 
	C49.212334,13.443423 44.267429,14.309842 39.281136,15.939388 
	C42.839809,12.824408 47.504387,11.332508 52.615196,9.985419 
z"/>
<path fill="#74159D" opacity="1.000000" stroke="none" 
	d="
M208.435944,255.948395 
	C211.212296,252.388290 215.669724,253.959473 219.974747,253.086288 
	C216.933823,255.511505 212.856064,255.585678 208.435944,255.948395 
z"/>
<path fill="#8BC34B" opacity="1.000000" stroke="none" 
	d="
M10.847370,62.422901 
	C12.860738,61.959682 14.678244,62.206459 14.910215,64.608696 
	C15.125275,66.835785 13.938712,67.947800 11.333141,67.993149 
	C10.882012,66.281326 10.820915,64.563217 10.847370,62.422901 
z"/>
<path fill="#FFC820" opacity="1.000000" stroke="none" 
	d="
M121.721130,180.631683 
	C118.141388,178.910172 118.279213,174.942322 117.056091,171.281128 
	C119.470718,173.598160 120.342865,177.056183 121.721130,180.631683 
z"/>
<path fill="#FFC71D" opacity="1.000000" stroke="none" 
	d="
M52.625359,144.128418 
	C51.360950,147.208282 48.238613,147.015808 45.217442,147.264114 
	C47.422897,146.059189 49.841030,145.107895 52.625359,144.128418 
z"/>
<path fill="#087D88" opacity="1.000000" stroke="none" 
	d="
M210.863739,120.275764 
	C213.080261,120.426834 215.107590,118.209732 217.728394,119.675995 
	C216.094467,121.021729 213.971756,121.024635 211.575531,121.259750 
	C211.175400,120.944969 211.074081,120.696770 210.863739,120.275764 
z"/>
<path fill="#25C6DA" opacity="1.000000" stroke="none" 
	d="
M174.561768,15.905372 
	C174.261398,18.695890 172.170059,19.665600 169.174637,19.941011 
	C170.603775,18.605284 172.415680,17.288525 174.561768,15.905372 
z"/>
<path fill="#680094" opacity="1.000000" stroke="none" 
	d="
M259.037292,200.108368 
	C259.354645,199.830933 259.653503,199.991653 260.199036,200.213501 
	C260.405060,201.964569 260.364380,203.654526 260.192413,205.684784 
	C258.237061,204.479843 259.273621,202.390320 259.037292,200.108368 
z"/>
<path fill="#11C1D6" opacity="1.000000" stroke="none" 
	d="
M149.320480,49.421204 
	C150.323059,52.035816 149.104309,54.390541 147.894684,57.083649 
	C147.453812,54.647461 147.482651,51.965332 149.320480,49.421204 
z"/>
<path fill="#FFC820" opacity="1.000000" stroke="none" 
	d="
M117.053413,170.606125 
	C114.493073,170.723602 114.295319,168.706680 114.003761,166.383514 
	C114.992447,167.435669 115.989090,168.857925 117.053413,170.606125 
z"/>
<path fill="#82BE3C" opacity="1.000000" stroke="none" 
	d="
M13.850647,46.312904 
	C16.055271,47.755405 13.892271,49.350384 13.733160,51.429527 
	C10.248510,50.052814 14.048202,48.356033 13.850647,46.312904 
z"/>
<path fill="#8BC349" opacity="1.000000" stroke="none" 
	d="
M22.653534,29.978039 
	C23.062233,31.644262 22.968710,33.372902 20.312492,33.945988 
	C20.756487,32.709259 21.571213,31.438524 22.653534,29.978039 
z"/>
<path fill="#0CBFD5" opacity="1.000000" stroke="none" 
	d="
M146.844696,61.405815 
	C148.735046,63.031265 148.079697,65.299202 147.195587,67.809799 
	C146.845810,65.986038 146.797836,63.913433 146.844696,61.405815 
z"/>
<path fill="#B155C1" opacity="1.000000" stroke="none" 
	d="
M146.832886,196.378784 
	C148.764908,197.978058 148.051666,200.263199 147.227188,202.786331 
	C146.878113,200.967941 146.823120,198.894272 146.832886,196.378784 
z"/>
<path fill="#82BE3C" opacity="1.000000" stroke="none" 
	d="
M13.225229,57.692543 
	C12.726966,58.004772 12.446121,58.008347 11.740778,58.002003 
	C11.053078,56.408077 11.255630,54.902512 12.394674,53.406590 
	C12.805921,53.909290 12.895257,54.505859 13.004871,55.553207 
	C13.391305,56.395283 13.530463,56.855255 13.225229,57.692543 
z"/>
<path fill="#6E0C99" opacity="1.000000" stroke="none" 
	d="
M230.380005,249.089767 
	C230.573242,247.484146 231.787308,246.927567 233.791992,247.079193 
	C233.233215,248.142792 232.148209,248.897980 230.380005,249.089767 
z"/>
<path fill="#77199F" opacity="1.000000" stroke="none" 
	d="
M224.343994,252.060333 
	C224.661392,250.491165 225.833252,249.904007 227.773651,250.064392 
	C227.394684,251.466888 226.045532,251.813232 224.343994,252.060333 
z"/>
<path fill="#8DC44D" opacity="1.000000" stroke="none" 
	d="
M124.609146,59.709831 
	C124.196899,60.009552 123.862038,60.001408 123.275826,59.990875 
	C122.387817,59.330379 122.276863,58.558685 122.769531,57.369522 
	C123.188507,57.022671 123.369698,57.014248 123.822586,56.990860 
	C124.291695,57.784592 124.489120,58.593281 124.609146,59.709831 
z"/>
<path fill="#8DC44D" opacity="1.000000" stroke="none" 
	d="
M123.263077,71.055939 
	C122.746880,70.326874 122.429642,69.902237 122.001976,69.233963 
	C122.572777,68.991714 123.254005,68.993095 124.274315,68.990662 
	C124.582970,69.547173 124.552544,70.107506 124.331421,70.883316 
	C123.914497,71.185982 123.688271,71.273170 123.263077,71.055939 
z"/>
<path fill="#7EBC36" opacity="1.000000" stroke="none" 
	d="
M103.755508,20.769831 
	C102.800789,20.909901 101.468697,21.194527 101.085396,19.223431 
	C101.903748,19.420456 102.740540,19.971598 103.755508,20.769831 
z"/>
<path fill="#FFC820" opacity="1.000000" stroke="none" 
	d="
M20.690624,167.238617 
	C20.943127,168.299393 21.140608,169.547333 19.252968,169.926880 
	C19.403889,169.068237 19.896700,168.183914 20.690624,167.238617 
z"/>
<path fill="#11C1D6" opacity="1.000000" stroke="none" 
	d="
M152.136810,89.336739 
	C153.770782,89.158493 154.065842,90.268105 153.919586,92.058319 
	C153.327240,91.517380 152.755310,90.588791 152.136810,89.336739 
z"/>
<path fill="#7EBC36" opacity="1.000000" stroke="none" 
	d="
M17.605616,38.001198 
	C17.915764,38.992981 18.317177,40.279644 16.430820,40.926720 
	C16.502392,40.046581 16.921459,39.107147 17.605616,38.001198 
z"/>
<path fill="#25C6DA" opacity="1.000000" stroke="none" 
	d="
M167.587982,20.784447 
	C168.016098,22.188309 167.340897,22.977669 165.428741,23.004223 
	C165.804413,22.312168 166.550354,21.605206 167.587982,20.784447 
z"/>
<path fill="#FFC30A" opacity="1.000000" stroke="none" 
	d="
M12.991732,210.580750 
	C12.986684,210.998169 12.538662,210.994202 12.314667,210.992477 
	C11.828180,209.491287 11.565690,207.991821 11.452076,206.043243 
	C13.296182,206.741470 12.963965,208.508148 12.991732,210.580750 
z"/>
<path fill="#8BC349" opacity="1.000000" stroke="none" 
	d="
M116.056091,34.617016 
	C114.501640,34.956367 113.961441,34.033485 114.053314,32.191143 
	C114.709572,32.645351 115.350822,33.475201 116.056091,34.617016 
z"/>
<path fill="#25C6DA" opacity="1.000000" stroke="none" 
	d="
M162.724472,25.176157 
	C162.936676,26.309542 163.078918,27.728912 160.810883,27.848892 
	C161.092270,26.997383 161.766159,26.161539 162.724472,25.176157 
z"/>
<path fill="#8BC349" opacity="1.000000" stroke="none" 
	d="
M38.616547,15.931719 
	C38.956554,17.481550 38.068626,18.045776 36.214729,17.901608 
	C36.662121,17.237904 37.484020,16.612015 38.616547,15.931719 
z"/>
<path fill="#85C040" opacity="1.000000" stroke="none" 
	d="
M18.963627,94.360840 
	C20.486151,94.043373 21.048414,94.930832 20.925797,96.766983 
	C20.274565,96.316101 19.650497,95.492767 18.963627,94.360840 
z"/>
<path fill="#8BC349" opacity="1.000000" stroke="none" 
	d="
M35.564724,17.886597 
	C35.992226,19.447384 35.100311,20.021074 33.234230,19.957851 
	C33.658581,19.286018 34.458813,18.624020 35.564724,17.886597 
z"/>
<path fill="#85C040" opacity="1.000000" stroke="none" 
	d="
M20.914286,97.399361 
	C22.417597,97.002380 23.018290,97.850922 22.982645,99.682404 
	C22.318821,99.267616 21.653477,98.485237 20.914286,97.399361 
z"/>
<path fill="#77199F" opacity="1.000000" stroke="none" 
	d="
M259.180603,211.838928 
	C258.327271,211.620544 257.960999,211.104645 258.761688,210.152237 
	C259.094849,210.553574 259.197845,211.103821 259.180603,211.838928 
z"/>
<path fill="#6E0C99" opacity="1.000000" stroke="none" 
	d="
M234.384369,247.112595 
	C234.159668,246.209763 233.976654,245.028091 235.800110,245.731873 
	C235.543533,246.324951 235.105118,246.688553 234.384369,247.112595 
z"/>
<path fill="#700F9A" opacity="1.000000" stroke="none" 
	d="
M239.292633,243.636078 
	C239.150650,242.845840 239.494476,242.181503 240.771942,242.048340 
	C240.568878,242.537064 240.062988,243.051773 239.292633,243.636078 
z"/>
<path fill="#7EBC36" opacity="1.000000" stroke="none" 
	d="
M100.939377,18.660461 
	C100.498306,18.657829 99.878418,18.379932 99.154724,17.755722 
	C99.620804,17.734671 100.190681,18.059935 100.939377,18.660461 
z"/>
<path fill="#7EBC36" opacity="1.000000" stroke="none" 
	d="
M18.685745,35.938938 
	C18.753191,36.362038 18.581837,37.003384 18.104185,37.799633 
	C18.014238,37.355419 18.230591,36.756302 18.685745,35.938938 
z"/>
<path fill="#6E0C99" opacity="1.000000" stroke="none" 
	d="
M228.346756,250.086807 
	C228.514221,249.780151 228.997482,249.424683 229.803528,249.072067 
	C229.869843,249.747726 229.364426,250.042160 228.346756,250.086807 
z"/>
<path fill="#0CBFD5" opacity="1.000000" stroke="none" 
	d="
M259.504669,53.589691 
	C258.681061,53.723900 257.981781,53.423409 258.787323,52.159225 
	C259.179321,52.408810 259.324402,52.832020 259.504669,53.589691 
z"/>
<path fill="#017C88" opacity="1.000000" stroke="none" 
	d="
M259.077972,71.078308 
	C259.267426,70.819855 259.440460,70.886353 259.879883,71.034286 
	C260.165436,71.542717 260.184662,71.969711 260.084717,72.696732 
	C259.664215,72.465591 259.362915,71.934433 259.077972,71.078308 
z"/>
<path fill="#FFCE5F" opacity="1.000000" stroke="none" 
	d="
M75.191025,255.810471 
	C75.148209,255.455734 75.404724,255.305130 75.959534,255.408325 
	C75.973946,255.760208 75.718124,255.877701 75.191025,255.810471 
z"/>
<path fill="#255D13" opacity="1.000000" stroke="none" 
	d="
M76.301926,121.102173 
	C76.019279,120.884193 75.973381,120.714546 75.840988,120.295471 
	C76.078758,120.201096 76.403023,120.356148 76.860641,120.749908 
	C76.993996,120.988617 76.538666,121.150497 76.301926,121.102173 
z"/>
<path fill="#2B611A" opacity="1.000000" stroke="none" 
	d="
M123.135437,71.019653 
	C123.241531,70.815170 123.418945,70.878815 123.868546,71.020630 
	C124.140724,71.098785 124.206314,71.565338 124.115631,71.782700 
	C123.752213,71.762642 123.479485,71.525215 123.135437,71.019653 
z"/>
<path fill="#82BE3C" opacity="1.000000" stroke="none" 
	d="
M113.233383,30.600426 
	C113.005699,30.641932 112.631104,30.369871 112.150513,29.754333 
	C112.391838,29.702858 112.739159,29.994860 113.233383,30.600426 
z"/>
<path fill="#FFC410" opacity="1.000000" stroke="none" 
	d="
M10.853554,199.233521 
	C11.246581,199.164093 11.716314,199.305328 11.099959,199.933441 
	C10.879606,199.852982 10.840567,199.676376 10.853554,199.233521 
z"/>
<path fill="#FFFCF9" opacity="1.000000" stroke="none" 
	d="
M88.682182,205.671173 
	C90.026970,210.564194 88.911606,213.274521 83.385292,212.227814 
	C81.940750,211.954208 80.294075,211.841583 78.927452,212.262650 
	C76.524704,213.002960 71.953957,209.547531 72.115402,215.568390 
	C72.275436,221.536530 76.773911,217.918976 79.205246,218.618973 
	C81.201248,219.193634 83.499733,218.832001 85.654289,218.710526 
	C87.968880,218.580017 89.306923,218.950500 89.315308,221.848267 
	C89.323471,224.671341 88.185722,225.238510 85.757713,225.046463 
	C83.774971,224.889648 81.759247,225.147507 79.776917,224.988083 
	C74.992279,224.603317 70.752632,224.437378 72.006287,231.515427 
	C72.539932,234.528320 69.658623,233.687851 68.094070,233.603195 
	C66.409721,233.512085 63.110603,234.836823 63.589886,231.615814 
	C64.698059,224.168304 60.237244,224.638550 55.387196,224.984879 
	C52.905464,225.162109 50.401672,225.030396 47.436089,225.075638 
	C46.753006,224.878937 46.542850,224.643860 46.192726,224.217560 
	C45.083443,222.669235 45.649082,221.144852 45.884529,219.358414 
	C47.888443,218.903030 49.589191,218.778351 51.693546,218.518524 
	C53.930969,217.378098 55.945755,217.828369 57.883755,217.671478 
	C59.578114,217.534317 61.243973,217.393234 61.382469,214.865143 
	C61.132290,214.208313 60.857986,213.923630 60.194397,213.610840 
	C56.302624,213.097092 52.687824,213.770981 48.740452,212.976837 
	C48.105640,212.768890 47.860188,212.659882 47.276230,212.332458 
	C46.937725,212.114044 46.615993,211.946121 46.434593,211.950851 
	C44.826317,210.257584 45.734806,208.296356 45.952408,206.088577 
	C46.272285,205.728088 46.189095,205.603699 46.134907,205.655304 
	C48.285610,203.161545 51.174404,205.006393 53.712589,204.572220 
	C55.447121,204.275497 57.273609,204.514145 59.444962,204.515045 
	C60.519371,204.530777 61.247887,204.358643 62.022804,204.695831 
	C62.686852,202.876495 61.377243,201.683563 61.196026,199.919052 
	C55.102707,188.251801 49.111633,176.886230 43.043537,165.166306 
	C45.591042,163.477051 48.350574,164.040131 51.510223,164.407959 
	C52.062752,164.696182 52.188942,164.811020 52.557732,165.007401 
	C53.406616,165.395920 53.463276,166.011673 53.792149,166.812912 
	C53.954346,167.060196 53.962379,166.989960 53.938889,167.016373 
	C54.427700,167.511047 54.603313,168.223709 55.329975,168.963501 
	C60.106335,176.381454 63.000118,184.418137 67.549614,191.979889 
	C70.010712,189.916351 70.110603,186.460480 72.791939,184.463898 
	C73.713402,183.191772 74.357018,182.133102 75.048996,180.762238 
	C75.304008,179.771011 75.498497,179.088058 76.056282,178.249405 
	C76.932144,177.084076 77.497604,176.091354 78.074371,174.808990 
	C78.285385,173.798309 78.493416,173.080032 79.132317,172.233780 
	C79.689919,171.712555 79.908653,171.349915 80.102425,170.769897 
	C80.303513,169.784775 80.509247,169.010910 81.056824,167.972290 
	C82.091667,166.775085 82.842560,165.860153 83.827324,164.754425 
	C86.412621,163.686783 88.815804,163.964294 91.644867,164.398254 
	C92.070717,164.553894 92.158661,164.907990 92.336975,164.948517 
	C86.107697,177.109756 79.700104,189.230453 73.240372,201.693237 
	C73.188225,202.035339 73.401360,202.487274 73.371399,202.733810 
	C73.220345,203.299850 73.199158,203.625839 73.426292,204.169312 
	C73.715775,204.493469 73.856834,204.606598 74.261032,204.822708 
	C75.143608,205.010651 75.767006,205.004959 76.752487,205.006500 
	C80.852715,205.226089 84.627380,204.518936 88.682182,205.671173 
z"/>
<path fill="#FF6E0C" opacity="1.000000" stroke="none" 
	d="
M72.728508,184.154968 
	C71.516174,187.665421 69.962585,191.080383 67.963593,195.474396 
	C63.374260,186.381256 59.205120,178.120667 54.958641,169.514618 
	C54.775242,168.903671 54.669174,168.638168 54.784828,168.005554 
	C61.123550,172.769806 65.899582,179.320480 72.728508,184.154968 
z"/>
<path fill="#FF6702" opacity="1.000000" stroke="none" 
	d="
M62.960197,212.819397 
	C64.492828,217.672287 62.546421,219.404572 57.828339,218.751648 
	C56.233559,218.530945 54.589489,218.666412 52.532547,218.511230 
	C50.742962,216.589508 49.444908,214.741440 47.277378,213.307922 
	C47.220978,212.864197 47.334068,212.682144 47.751381,212.396210 
	C52.380714,212.265228 56.705830,212.238144 61.491444,212.235962 
	C62.273129,212.327484 62.534679,212.490036 62.960197,212.819397 
z"/>
<path fill="#FFC412" opacity="1.000000" stroke="none" 
	d="
M61.072983,200.018036 
	C62.227009,200.998810 63.071182,202.523651 63.317337,204.665466 
	C62.923000,205.142960 62.626705,205.251526 61.857079,205.359268 
	C56.588631,205.499634 51.793518,205.640808 46.539562,205.744446 
	C49.642376,202.199829 54.058655,204.352081 58.033527,204.154816 
	C61.151489,204.000076 61.509205,202.851166 61.072983,200.018036 
z"/>
<path fill="#FFC30A" opacity="1.000000" stroke="none" 
	d="
M51.818554,164.235504 
	C49.246441,164.633224 46.556320,164.685120 43.416359,164.774475 
	C45.566059,161.551712 48.652214,162.899780 51.818554,164.235504 
z"/>
<path fill="#FFC30A" opacity="1.000000" stroke="none" 
	d="
M91.911545,164.232758 
	C89.693634,164.596863 87.316551,164.639847 84.500336,164.623230 
	C86.406319,161.767593 89.080055,162.847961 91.911545,164.232758 
z"/>
<path fill="#FFC30A" opacity="1.000000" stroke="none" 
	d="
M45.962780,206.000641 
	C46.249172,207.513474 46.226059,209.298874 46.228073,211.519928 
	C44.148098,210.262589 44.853622,208.272873 45.962780,206.000641 
z"/>
<path fill="#FFC30A" opacity="1.000000" stroke="none" 
	d="
M45.878822,219.219727 
	C46.179089,220.418198 46.170479,221.808701 46.106735,223.613281 
	C44.502541,222.633728 44.777981,221.049683 45.878822,219.219727 
z"/>
<path fill="#FFC823" opacity="1.000000" stroke="none" 
	d="
M47.039570,226.338913 
	C47.582264,226.505554 48.168697,226.991486 48.884926,227.735901 
	C48.108986,227.927597 47.314445,227.700089 47.039570,226.338913 
z"/>
<path fill="#FF8B28" opacity="1.000000" stroke="none" 
	d="
M53.953094,166.744553 
	C53.608044,166.601135 53.261745,166.142090 52.857887,165.385986 
	C53.184166,165.535599 53.568008,165.982254 53.953094,166.744553 
z"/>
<path fill="#FFC516" opacity="1.000000" stroke="none" 
	d="
M81.022095,167.956024 
	C81.112595,168.456772 80.884407,169.223511 80.366837,170.271378 
	C80.286110,169.775665 80.494759,168.998840 81.022095,167.956024 
z"/>
<path fill="#FFC516" opacity="1.000000" stroke="none" 
	d="
M76.025970,178.223541 
	C76.103706,178.703354 75.840729,179.329910 75.337547,180.203278 
	C75.293320,179.756805 75.489296,179.063553 76.025970,178.223541 
z"/>
<path fill="#FF8B28" opacity="1.000000" stroke="none" 
	d="
M54.877674,167.459808 
	C54.996227,167.894531 54.985897,168.150589 54.928436,168.787903 
	C54.551640,168.666489 54.221973,168.163818 53.903851,167.351959 
	C54.230396,166.992767 54.508198,167.072220 54.877674,167.459808 
z"/>
<path fill="#FFC516" opacity="1.000000" stroke="none" 
	d="
M79.109589,172.218613 
	C79.178871,172.721207 78.886559,173.367218 78.339966,174.266296 
	C78.306450,173.800247 78.527222,173.081131 79.109589,172.218613 
z"/>
<path fill="#FF8E4A" opacity="1.000000" stroke="none" 
	d="
M47.786186,212.184692 
	C47.954559,212.572647 47.768585,212.774780 47.302780,212.972473 
	C47.107887,213.046265 46.991722,212.585770 46.964722,212.349915 
	C47.130741,212.101715 47.323757,212.089401 47.786186,212.184692 
z"/>
<path fill="#FDFBFD" opacity="1.000000" stroke="none" 
	d="
M226.164459,175.646835 
	C225.418777,175.700378 224.961304,175.431870 224.238464,175.136993 
	C223.768311,175.152588 223.563507,175.194519 223.226776,174.951996 
	C218.537018,172.396225 213.788406,171.183640 208.287964,172.220444 
	C207.621765,173.814240 206.391495,173.350189 205.141693,173.693878 
	C204.787170,173.821854 204.892334,173.793106 204.855865,173.752594 
	C204.751556,173.898453 204.683716,174.084824 204.325256,174.207520 
	C200.195267,176.438293 199.225327,180.244247 199.019257,184.260605 
	C198.800262,188.528687 198.944092,192.815414 199.017365,197.555664 
	C202.875259,199.973465 206.922729,198.631073 210.827957,198.986450 
	C212.969101,199.181290 215.147980,198.767319 217.673279,199.510696 
	C218.071320,199.696854 218.001816,199.890564 218.101105,199.917572 
	C219.173828,201.663879 219.196289,203.436386 218.223038,205.618225 
	C217.948837,205.987167 217.458908,205.983566 217.224869,206.055939 
	C213.849075,207.790222 210.464783,206.877640 207.199493,206.953430 
	C199.039886,207.142792 200.724640,206.511154 198.825775,213.980011 
	C196.844818,217.594788 195.093735,220.868042 191.995834,223.614258 
	C191.838074,224.496368 191.537064,224.898865 190.859665,225.325500 
	C191.247070,225.803482 191.678177,225.139252 192.598389,225.258301 
	C204.070953,225.830887 215.179184,225.278290 226.624374,225.894913 
	C227.030197,226.368179 227.091568,226.544327 227.370056,226.896912 
	C228.165344,229.122177 228.102341,231.184265 227.543457,233.665039 
	C227.371902,234.077011 227.087372,234.051773 227.080231,234.194427 
	C224.869934,235.377075 222.515625,234.994293 220.226776,234.974350 
	C207.500870,234.863480 194.771301,235.320633 181.604935,234.530884 
	C178.685989,229.027649 179.427124,225.906265 183.868698,223.014435 
	C187.139893,220.884613 188.734955,217.770691 189.206238,213.617065 
	C189.410110,209.197021 187.348969,207.071823 183.236694,206.222794 
	C181.288376,204.474503 182.275009,202.457870 181.984192,200.264801 
	C184.231186,198.374420 186.960510,199.389526 189.626892,198.237488 
	C189.986176,194.351776 190.080002,190.688995 190.086365,187.026062 
	C190.114044,171.083542 200.472305,162.037308 216.336517,164.271484 
	C219.447174,164.709564 222.482422,165.683151 225.783966,166.705078 
	C226.182205,167.235565 226.348892,167.470734 226.678375,168.106476 
	C226.942764,170.792786 227.373093,173.097275 226.164459,175.646835 
z"/>
<path fill="#680094" opacity="1.000000" stroke="none" 
	d="
M181.173523,234.581116 
	C196.149429,234.325226 211.137634,234.329453 226.599457,234.335373 
	C226.188263,236.817627 224.050537,235.958694 222.373901,235.966934 
	C209.208649,236.031708 196.042999,236.011780 182.402405,236.029938 
	C181.680145,235.641693 181.432968,235.241455 181.173523,234.581116 
z"/>
<path fill="#77199F" opacity="1.000000" stroke="none" 
	d="
M182.992340,206.340317 
	C183.303070,205.972214 183.626678,205.932281 183.950623,205.929382 
	C190.353195,205.871979 190.353210,205.872833 189.427658,212.898438 
	C187.247864,210.939056 184.481216,209.421112 182.992340,206.340317 
z"/>
<path fill="#6A0395" opacity="1.000000" stroke="none" 
	d="
M226.267410,175.886414 
	C225.976974,173.635147 226.077713,171.301392 226.181107,168.529541 
	C226.478790,167.673218 226.884201,167.514679 227.695648,167.755188 
	C228.006210,167.929703 228.063049,168.368866 228.106918,168.585144 
	C227.371109,171.075439 229.288757,173.924240 226.267410,175.886414 
z"/>
<path fill="#AE51BE" opacity="1.000000" stroke="none" 
	d="
M189.506424,198.008011 
	C188.101486,200.865204 185.181061,199.199631 182.383377,199.795166 
	C183.595596,196.367447 186.728073,198.681351 189.506424,198.008011 
z"/>
<path fill="#BB69C8" opacity="1.000000" stroke="none" 
	d="
M227.829025,167.701279 
	C227.599533,167.944504 227.192856,167.959320 226.484970,168.032776 
	C226.114578,167.915924 226.045410,167.740417 225.995880,167.282654 
	C226.560944,167.157883 227.106400,167.315369 227.829025,167.701279 
z"/>
<path fill="#F5F8F4" opacity="1.000000" stroke="none" 
	d="
M71.212082,40.777420 
	C70.905006,46.361656 70.848930,51.717648 70.878647,57.534218 
	C71.940422,58.955524 73.382278,58.829121 74.735992,59.700718 
	C79.189690,61.552814 84.134109,61.813599 87.229935,65.590393 
	C93.784637,73.586868 91.653374,84.232658 82.590950,89.284019 
	C80.717415,90.328331 78.666176,91.053833 76.340851,92.031532 
	C75.517975,92.522163 75.014847,92.815994 74.090759,92.696373 
	C73.389107,92.689369 72.974960,92.758698 72.271805,92.953804 
	C71.813042,93.225670 71.643303,93.371742 71.239151,93.758423 
	C70.925278,98.085831 70.883301,102.173927 70.743210,106.258659 
	C70.701881,107.463646 71.375038,108.946480 69.379227,109.869705 
	C68.277016,110.627831 67.464508,110.704887 66.279404,110.109055 
	C65.977707,109.504417 65.853981,109.266029 65.392120,109.060577 
	C64.755661,108.644653 64.454887,108.180733 64.161598,107.235168 
	C63.190132,103.658356 63.765930,100.409317 63.551628,96.834320 
	C63.649551,94.630745 62.512100,94.257431 60.650948,94.315765 
	C57.723759,94.374939 55.255424,93.599342 52.319561,93.358147 
	C51.111099,93.196266 50.344303,92.956512 49.365364,92.198303 
	C49.060650,91.925606 48.995491,91.991226 49.031002,91.963097 
	C48.581036,91.567184 47.982166,91.492378 47.233597,91.078590 
	C47.038769,90.856209 47.017067,90.940636 47.060524,90.944046 
	C46.769958,90.708794 46.445526,90.457710 45.877464,90.019104 
	C45.367470,89.560020 45.109356,89.277748 44.646957,88.975296 
	C42.470139,86.339523 43.914524,83.388191 44.022411,80.325867 
	C44.760918,80.034286 45.099434,80.024338 45.693626,80.015038 
	C46.459671,80.508873 47.086060,80.447937 48.024292,80.454361 
	C49.526875,80.983032 50.630966,81.638496 52.138256,82.182510 
	C53.474007,82.697296 54.584019,82.806564 55.933121,83.304321 
	C56.403866,83.610886 56.572659,83.761993 56.745781,84.252914 
	C58.679623,86.038986 60.963108,85.982162 63.596115,86.070419 
	C64.211510,85.781281 64.441696,85.542023 64.866409,85.145355 
	C65.091278,84.536858 65.129967,84.093788 65.085068,83.326004 
	C64.075203,81.327759 64.663841,79.528633 64.780182,77.395218 
	C65.034737,76.819534 65.078224,76.634773 65.042221,76.176613 
	C64.532204,75.329468 64.283905,74.671982 64.011093,73.657883 
	C63.717381,72.241058 63.850140,71.144203 63.778202,69.757988 
	C63.684483,69.086143 63.579723,68.722626 63.240150,68.163086 
	C62.910294,67.833611 62.761818,67.716324 62.366192,67.450478 
	C61.248997,66.811394 60.338127,66.427162 59.042744,66.185852 
	C58.315090,66.054916 57.900181,65.961220 57.173439,65.766762 
	C56.019344,65.405731 55.216011,65.052429 54.167908,64.436539 
	C53.024677,63.573162 52.300140,62.707943 51.027390,62.003151 
	C50.519905,61.529816 50.257675,61.281803 49.730499,60.950752 
	C49.032688,61.826775 48.552830,61.156403 47.869972,60.681061 
	C47.045856,59.612553 46.570049,58.682453 45.600136,57.304276 
	C45.176601,56.548908 45.089520,56.345882 44.888382,55.827942 
	C44.424747,54.421856 44.114880,53.320667 43.893311,51.832771 
	C43.810284,50.504227 43.880802,49.548191 44.507515,48.340908 
	C45.324528,46.241734 45.952065,44.454281 46.683800,42.333378 
	C46.522240,39.470005 48.697960,38.509975 50.272518,36.772057 
	C51.271976,36.007580 52.080784,35.576485 53.105194,34.849644 
	C53.588814,34.544872 53.788086,34.431870 54.300556,34.177246 
	C56.936146,33.017456 59.513687,33.036057 62.223083,32.162849 
	C65.279076,33.443134 65.182487,31.571707 65.084961,29.398918 
	C64.038765,26.988567 64.683693,24.866241 64.783310,22.398758 
	C65.950928,18.754841 68.324150,20.202448 70.611725,20.601833 
	C71.467041,21.454268 71.697510,22.256914 72.085449,23.427887 
	C72.524323,25.641096 72.265198,27.497744 72.598877,29.685642 
	C73.677979,32.577824 76.053017,31.407200 77.796700,31.890715 
	C79.683517,32.413925 81.634033,32.704903 83.685287,33.851242 
	C83.968201,34.091400 83.983688,34.018074 83.946442,34.013992 
	C84.063583,34.141453 84.217987,34.272995 84.628456,34.568871 
	C86.046249,35.294968 87.207985,35.856731 88.625275,36.617104 
	C90.094780,39.220924 89.274818,41.770725 89.085831,44.601398 
	C86.470543,45.227821 85.163116,42.565620 82.467438,42.965340 
	C81.620880,42.568546 81.008415,42.496960 80.240791,42.083508 
	C79.600533,41.491291 79.162338,41.122730 78.416840,40.755005 
	C75.867599,41.537601 73.708351,39.660015 71.212082,40.777420 
z"/>
<path fill="#346A1F" opacity="1.000000" stroke="none" 
	d="
M64.796074,94.789650 
	C65.088837,98.703682 65.147751,102.400368 65.105225,106.548111 
	C64.589340,107.376534 64.104416,107.526756 63.212437,107.239967 
	C59.000599,103.272049 55.125553,99.514732 51.099224,95.466919 
	C50.253853,94.124626 50.365047,93.205063 51.704956,92.187027 
	C54.751846,92.297424 57.491585,92.657623 60.632847,93.136246 
	C62.016438,94.212990 63.517815,93.780914 64.796074,94.789650 
z"/>
<path fill="#8BC34B" opacity="1.000000" stroke="none" 
	d="
M51.236870,36.929745 
	C49.781311,38.631638 48.498863,40.068253 47.002205,41.752396 
	C44.821548,41.774612 44.471703,44.152702 42.841091,44.545033 
	C42.231827,37.578186 51.476181,29.527563 57.948471,31.668095 
	C58.060299,34.516937 55.514805,33.550095 54.284645,34.907993 
	C54.075668,35.194565 54.059200,35.103760 54.104290,35.113560 
	C53.185265,35.546444 52.179184,35.894924 51.236870,36.929745 
z"/>
<path fill="#33691E" opacity="1.000000" stroke="none" 
	d="
M71.322174,31.252724 
	C70.897133,28.949545 70.847748,26.904032 70.892929,24.429337 
	C71.713882,23.376078 72.537605,23.284283 73.819199,23.742159 
	C76.061874,25.698227 77.912788,27.466162 79.918114,29.514696 
	C80.995621,31.896032 79.870300,32.734245 78.061577,32.397694 
	C75.945633,32.003971 73.740051,32.327198 71.322174,31.252724 
z"/>
<path fill="#8BC34B" opacity="1.000000" stroke="none" 
	d="
M48.155796,59.747139 
	C48.766068,60.077072 49.061749,60.301807 49.411491,60.697128 
	C48.948780,62.028259 49.352787,64.257576 46.887249,63.204494 
	C43.420483,61.723766 40.405209,51.863060 42.620842,48.075668 
	C44.162460,48.861523 43.798820,50.342651 44.560280,51.703239 
	C45.097054,53.083313 45.455715,54.202068 45.852356,55.671204 
	C45.813511,56.211582 45.736687,56.401577 45.930508,56.737350 
	C46.201157,56.883125 46.117802,56.960457 46.126526,56.904278 
	C46.558506,57.868156 46.938694,58.914516 48.155796,59.747139 
z"/>
<path fill="#366D1F" opacity="1.000000" stroke="none" 
	d="
M62.876762,66.789368 
	C63.167973,66.945580 63.611160,66.957748 63.818523,67.036118 
	C64.197029,67.261337 64.368172,67.408195 64.788147,67.784225 
	C65.095459,69.404587 65.153954,70.795784 65.107605,72.593094 
	C64.629738,73.409897 64.213638,73.754089 63.378036,73.858490 
	C60.431381,72.197090 58.555637,69.705460 56.261345,67.218460 
	C56.021385,66.222000 56.172428,65.584785 56.855087,64.823654 
	C57.568913,64.705559 57.997623,64.768066 58.719311,64.976288 
	C60.004826,66.095215 61.246960,66.478233 62.876762,66.789368 
z"/>
<path fill="#8BC34B" opacity="1.000000" stroke="none" 
	d="
M56.837685,84.165810 
	C56.750114,84.592712 56.491459,84.567284 56.389938,84.486160 
	C55.373989,83.073059 53.886051,83.356155 52.251869,83.133087 
	C50.721535,82.707924 49.531578,82.242226 48.133446,81.532181 
	C47.754921,80.963745 47.515530,80.700867 47.109402,80.240952 
	C47.372982,77.558693 49.072323,77.730667 50.631737,78.404282 
	C53.231594,79.527313 57.143612,79.250336 56.837685,84.165810 
z"/>
<path fill="#2C621A" opacity="1.000000" stroke="none" 
	d="
M70.933731,31.406097 
	C73.888924,29.827740 77.053246,33.166107 79.998489,30.174089 
	C81.363586,31.004927 82.654648,32.214561 83.956955,33.757797 
	C79.596733,33.461746 75.113968,33.470612 70.933731,31.406097 
z"/>
<path fill="#8BC34B" opacity="1.000000" stroke="none" 
	d="
M122.630310,57.067238 
	C123.007690,57.770378 123.008049,58.509666 123.016441,59.618721 
	C122.768440,61.797092 123.509918,63.778378 121.939003,66.090752 
	C120.497726,62.592384 118.011765,59.781639 122.630310,57.067238 
z"/>
<path fill="#8BC34B" opacity="1.000000" stroke="none" 
	d="
M63.953369,119.623489 
	C62.610195,119.989243 61.222401,119.990540 59.418316,119.987282 
	C59.064079,118.721962 58.883789,117.280815 60.697456,117.093109 
	C62.329575,116.924187 63.474243,117.594429 63.953369,119.623489 
z"/>
<path fill="#85C040" opacity="1.000000" stroke="none" 
	d="
M54.451897,35.142776 
	C54.407570,33.194767 56.286167,33.232117 57.798225,32.260242 
	C59.214100,32.015892 60.428432,32.032547 62.098541,32.065208 
	C60.364517,34.074306 57.295280,33.809864 54.451897,35.142776 
z"/>
<path fill="#79B82E" opacity="1.000000" stroke="none" 
	d="
M44.051369,80.239212 
	C44.397221,82.718323 44.372036,85.392403 44.394760,88.510796 
	C41.823673,86.326378 42.958473,83.361809 44.051369,80.239212 
z"/>
<path fill="#255D13" opacity="1.000000" stroke="none" 
	d="
M56.871700,64.440254 
	C56.969524,65.263611 56.798847,65.884171 56.378868,66.711792 
	C55.529148,66.430954 54.928730,65.943062 54.129429,65.240105 
	C53.829556,64.735138 53.728569,64.445236 53.846165,63.750053 
	C54.910896,63.642326 55.757046,63.939892 56.871700,64.440254 
z"/>
<path fill="#145200" opacity="1.000000" stroke="none" 
	d="
M89.107452,44.733284 
	C88.748657,42.538528 88.735123,40.126926 88.801208,37.265514 
	C89.900116,37.132504 90.206131,38.002804 90.496429,39.229370 
	C90.152512,41.218014 89.802612,42.867226 89.107452,44.733284 
z"/>
<path fill="#7EBC36" opacity="1.000000" stroke="none" 
	d="
M44.772182,51.571663 
	C42.671852,51.680363 43.071892,50.073269 42.995964,48.359268 
	C43.372169,48.006470 43.750736,48.014591 44.413147,48.025948 
	C44.733322,49.079052 44.769650,50.128910 44.772182,51.571663 
z"/>
<path fill="#7BBA32" opacity="1.000000" stroke="none" 
	d="
M64.714668,22.256126 
	C65.038269,24.044554 65.079941,26.087952 65.060226,28.565645 
	C63.282352,26.970284 63.945549,24.733013 64.714668,22.256126 
z"/>
<path fill="#255D13" opacity="1.000000" stroke="none" 
	d="
M66.006348,110.143341 
	C66.732574,109.815109 67.495872,109.818817 68.628967,109.914078 
	C68.995483,110.792084 68.992210,111.578552 68.972542,112.760574 
	C67.985237,112.262520 67.014320,111.368896 66.006348,110.143341 
z"/>
<path fill="#275E17" opacity="1.000000" stroke="none" 
	d="
M51.658127,91.802132 
	C51.682808,92.787292 51.353512,93.637344 50.986076,94.831909 
	C49.947449,94.534027 49.088039,93.773674 48.912624,92.245392 
	C49.808483,91.839417 50.556316,91.753220 51.658127,91.802132 
z"/>
<path fill="#7BBA32" opacity="1.000000" stroke="none" 
	d="
M64.714920,77.248001 
	C65.035072,78.719696 65.078896,80.435097 65.062103,82.575897 
	C63.368725,81.312408 63.910355,79.401382 64.714920,77.248001 
z"/>
<path fill="#8BC34B" opacity="1.000000" stroke="none" 
	d="
M74.202087,10.206612 
	C75.231010,10.266548 75.793343,10.619150 75.361557,11.395930 
	C75.207336,11.673374 74.436890,11.857421 74.083809,11.723981 
	C73.318489,11.434740 73.241989,10.847055 74.202087,10.206612 
z"/>
<path fill="#2C621A" opacity="1.000000" stroke="none" 
	d="
M74.037643,23.648842 
	C73.404465,23.954880 72.597969,23.979471 71.389481,24.002108 
	C70.919510,23.203358 70.851532,22.406561 70.844833,21.210323 
	C71.892181,21.663054 72.878250,22.515224 74.037643,23.648842 
z"/>
<path fill="#54843D" opacity="1.000000" stroke="none" 
	d="
M53.835976,63.147186 
	C54.037891,63.624485 54.011044,63.904205 53.957371,64.604477 
	C52.981579,64.145103 52.032612,63.265171 50.932892,62.081535 
	C51.723827,62.168423 52.665520,62.559017 53.835976,63.147186 
z"/>
<path fill="#1C5707" opacity="1.000000" stroke="none" 
	d="
M63.238434,74.093658 
	C63.551006,73.562309 63.998058,73.281303 64.723938,72.999741 
	C65.047157,73.729378 65.091545,74.459572 65.049332,75.546494 
	C64.432785,75.383484 63.902843,74.863747 63.238434,74.093658 
z"/>
<path fill="#8BC34B" opacity="1.000000" stroke="none" 
	d="
M13.322161,73.956978 
	C13.019913,73.551910 13.013459,73.108498 13.007622,72.332413 
	C13.523636,72.231468 14.288932,72.331505 14.496508,72.725433 
	C14.816673,73.333023 14.237416,73.745888 13.322161,73.956978 
z"/>
<path fill="#8BC34B" opacity="1.000000" stroke="none" 
	d="
M87.394196,32.954308 
	C87.797844,32.211315 88.205742,32.205475 88.567329,32.731659 
	C88.643166,32.842026 88.641113,33.098427 88.562920,33.206402 
	C88.188286,33.723717 87.780579,33.704269 87.394196,32.954308 
z"/>
<path fill="#8BC34B" opacity="1.000000" stroke="none" 
	d="
M61.465515,10.609372 
	C61.696751,11.422040 61.410690,11.713809 60.781414,11.590526 
	C60.650360,11.564850 60.473457,11.379846 60.453419,11.247686 
	C60.356895,10.611094 60.666298,10.344168 61.465515,10.609372 
z"/>
<path fill="#8BC34B" opacity="1.000000" stroke="none" 
	d="
M13.304901,57.962151 
	C13.008790,57.557289 13.009768,57.113384 13.017946,56.336739 
	C13.537545,56.239391 14.305627,56.346367 14.503259,56.739857 
	C14.810546,57.351665 14.219858,57.754547 13.304901,57.962151 
z"/>
<path fill="#1A5605" opacity="1.000000" stroke="none" 
	d="
M63.023392,107.315643 
	C63.349022,107.014053 63.822403,106.998741 64.649780,106.991302 
	C65.066147,107.446785 65.128510,107.894394 65.188507,108.683456 
	C64.166672,109.043060 63.759468,108.194252 63.023392,107.315643 
z"/>
<path fill="#275E17" opacity="1.000000" stroke="none" 
	d="
M47.099373,91.215027 
	C47.817059,90.146416 48.355061,90.704453 48.984802,91.572258 
	C48.306145,92.473793 47.720818,92.088470 47.099373,91.215027 
z"/>
<path fill="#82BE3C" opacity="1.000000" stroke="none" 
	d="
M46.738152,80.000854 
	C47.265419,80.242821 47.529823,80.493446 47.859749,81.015945 
	C47.377541,81.034050 46.829811,80.780281 46.115696,80.271103 
	C46.124638,80.013626 46.299961,80.011566 46.738152,80.000854 
z"/>
<path fill="#275E17" opacity="1.000000" stroke="none" 
	d="
M45.802830,90.117859 
	C46.106785,89.964180 46.587986,90.086075 47.086586,90.577705 
	C46.729343,90.762772 46.354710,90.578102 45.802830,90.117859 
z"/>
<path fill="#7BBA32" opacity="1.000000" stroke="none" 
	d="
M64.812592,85.082886 
	C64.902641,85.328674 64.752686,85.677422 64.296196,86.027367 
	C64.183975,85.747665 64.378288,85.466751 64.812592,85.082886 
z"/>
<path fill="#2C621A" opacity="1.000000" stroke="none" 
	d="
M84.745010,34.582329 
	C84.553978,34.664875 84.223427,34.596554 83.901031,34.269073 
	C84.177505,34.090607 84.409607,34.231121 84.745010,34.582329 
z"/>
<path fill="#F6FBFC" opacity="1.000000" stroke="none" 
	d="
M186.047348,83.697220 
	C186.650558,84.979492 187.419861,85.926422 188.483337,86.971191 
	C189.108963,87.216568 189.440048,87.364998 189.867340,87.769485 
	C191.953171,90.173233 194.574982,91.157822 197.635513,91.993034 
	C201.734314,91.830017 205.481339,92.258339 209.609985,91.904984 
	C214.330795,91.888672 217.698776,89.449165 221.164658,87.073479 
	C222.973297,96.825226 222.793961,97.062241 211.367477,100.065826 
	C204.157791,102.120415 197.388214,101.996399 190.308624,99.295334 
	C183.576599,94.579483 176.895782,90.382767 173.399414,82.629662 
	C172.938690,82.122437 172.718353,81.757675 172.247391,81.170349 
	C172.050293,80.916031 172.053131,80.993011 172.087311,80.975235 
	C170.844177,78.359390 169.431335,75.900421 165.968582,75.035660 
	C165.787323,72.302147 165.563431,69.642044 169.057343,69.017799 
	C171.022995,68.666611 169.996140,66.980515 170.154266,65.453568 
	C168.963486,63.491096 168.665924,61.262894 166.162476,60.440514 
	C164.862762,58.436623 166.490311,57.120956 166.898743,55.227894 
	C168.026382,53.845978 169.493607,53.707207 171.101746,53.027195 
	C173.176773,49.503845 174.247498,45.813011 176.479904,42.653091 
	C186.106796,29.026358 206.464706,24.816944 221.778763,33.668640 
	C222.516296,34.647587 222.717087,35.421654 222.279449,36.641735 
	C221.935226,38.812340 221.805908,40.626427 221.644287,42.893482 
	C213.302307,37.628735 204.530045,35.091183 195.100861,38.455944 
	C189.243896,40.545959 185.018082,44.753922 182.628479,50.974712 
	C182.926437,51.867287 182.511551,52.436256 182.721008,53.268204 
	C183.361252,54.130478 183.892395,53.298595 184.812119,53.512505 
	C190.854782,54.601864 196.675278,53.288265 202.648697,54.832546 
	C202.386429,56.572620 201.815460,58.033661 201.138733,59.816368 
	C196.869675,61.902981 192.501923,60.612225 188.244583,60.986172 
	C185.779037,61.202732 183.260437,60.606186 180.482727,61.729546 
	C179.555161,69.096420 179.555176,69.103493 186.290298,69.093132 
	C189.573303,69.088081 192.856293,69.050972 196.612610,69.008461 
	C198.226822,70.623276 197.266785,71.991844 196.276398,73.694992 
	C195.755768,74.121986 195.513718,74.282394 195.173828,74.662582 
	C192.132019,76.240067 189.033813,75.417534 186.043991,75.407799 
	C182.434906,75.396065 181.529663,76.464958 183.510376,79.944115 
	C183.476837,80.318993 183.466949,80.394470 183.450241,80.428665 
	C184.492889,80.183441 184.397141,81.071205 184.629211,81.979538 
	C184.638443,82.322037 184.803009,82.037865 184.700256,82.165932 
	C185.080215,82.245445 185.452026,82.434113 185.573212,83.124557 
	C185.416473,83.425613 185.479919,83.583221 185.521301,83.657402 
	C185.779617,83.608353 185.996536,83.485123 186.047348,83.697220 
z"/>
<path fill="#087D88" opacity="1.000000" stroke="none" 
	d="
M190.052948,99.410515 
	C196.638107,99.917984 203.325424,101.461342 210.578918,100.168304 
	C210.199905,103.062592 207.825546,101.676308 206.095673,101.992737 
	C202.527847,102.645363 198.603409,100.602959 195.120209,103.778481 
	C193.345779,102.661003 191.769196,101.182625 190.052948,99.410515 
z"/>
<path fill="#0A7985" opacity="1.000000" stroke="none" 
	d="
M165.831726,75.149139 
	C170.432373,73.456131 172.113953,76.034103 172.343994,80.573898 
	C169.486603,79.789070 168.047958,77.282593 165.831726,75.149139 
z"/>
<path fill="#16808C" opacity="1.000000" stroke="none" 
	d="
M165.955994,60.594246 
	C169.069351,59.642231 171.019760,60.401867 170.174438,64.620300 
	C168.371567,64.023636 166.952286,62.714016 165.955994,60.594246 
z"/>
<path fill="#017C88" opacity="1.000000" stroke="none" 
	d="
M222.443115,36.999302 
	C222.004257,36.234131 221.943939,35.470009 221.941254,34.323151 
	C222.934998,34.762928 223.871109,35.585442 224.954010,36.687729 
	C224.341095,36.978451 223.581375,36.989399 222.443115,36.999302 
z"/>
<path fill="#0CBFD5" opacity="1.000000" stroke="none" 
	d="
M171.010391,52.905544 
	C171.169739,55.357231 169.190872,54.584927 167.364746,54.867134 
	C167.311035,52.644554 169.117889,53.087208 171.010391,52.905544 
z"/>
<path fill="#0A7985" opacity="1.000000" stroke="none" 
	d="
M172.126282,81.237495 
	C172.684097,80.815315 173.052994,81.083977 173.129730,82.119049 
	C172.798538,82.202438 172.500397,81.880699 172.126282,81.237495 
z"/>
<path fill="#017280" opacity="1.000000" stroke="none" 
	d="
M180.592377,62.003357 
	C180.114471,59.445522 182.057541,60.293770 183.327621,60.277180 
	C188.916214,60.204205 194.506210,60.237869 200.564331,60.185455 
	C200.523880,62.534401 198.596817,61.970028 197.028656,61.983219 
	C191.703522,62.028015 186.377777,62.002861 180.592377,62.003357 
z"/>
<path fill="#007482" opacity="1.000000" stroke="none" 
	d="
M182.145721,54.203064 
	C181.796524,53.324749 181.950256,52.598129 182.355804,51.592255 
	C184.177170,53.902103 186.758087,52.687035 188.936539,53.005608 
	C193.538177,53.678539 198.404449,51.517052 202.882141,54.707130 
	C196.762894,54.981846 190.568390,54.852108 184.036392,54.523525 
	C183.348816,54.334709 182.998749,54.344734 182.145721,54.203064 
z"/>
<path fill="#228591" opacity="1.000000" stroke="none" 
	d="
M209.706055,91.705460 
	C206.273560,92.984940 202.520706,93.218956 198.365234,92.150635 
	C201.719391,90.166138 205.578094,91.088272 209.706055,91.705460 
z"/>
<path fill="#0B7582" opacity="1.000000" stroke="none" 
	d="
M183.618454,79.941795 
	C182.254532,78.775299 181.428207,77.084778 181.431931,74.743195 
	C185.718887,74.743195 189.917358,74.743195 194.582687,74.792831 
	C192.533340,77.141953 189.473526,75.881386 186.702759,75.900871 
	C183.766586,75.921539 182.915665,76.868790 183.618454,79.941795 
z"/>
<path fill="#0B7582" opacity="1.000000" stroke="none" 
	d="
M196.360260,73.946152 
	C196.432205,72.574455 196.840149,71.147438 197.167023,69.354492 
	C200.522919,70.906181 197.934494,72.344833 196.360260,73.946152 
z"/>
<path fill="#007482" opacity="1.000000" stroke="none" 
	d="
M190.121414,87.854111 
	C189.649567,87.867760 189.335159,87.710869 188.899109,87.311508 
	C189.299332,87.221611 190.132889,86.612663 190.121414,87.854111 
z"/>
<path fill="#0B7582" opacity="1.000000" stroke="none" 
	d="
M184.721527,81.967804 
	C184.293594,81.883278 183.948746,81.444519 183.518723,80.734314 
	C184.314224,80.341629 184.762253,80.735924 184.721527,81.967804 
z"/>
<path fill="#0B7582" opacity="1.000000" stroke="none" 
	d="
M186.057831,83.921082 
	C185.881256,84.032555 185.658096,83.947136 185.610397,83.839355 
	C185.803864,83.608963 186.109314,82.932907 186.057831,83.921082 
z"/>
<path fill="#0B7582" opacity="1.000000" stroke="none" 
	d="
M185.498596,83.131424 
	C185.102722,83.293266 184.873978,83.072708 184.663864,82.528969 
	C184.925247,82.475075 185.252975,82.656158 185.498596,83.131424 
z"/>
<path fill="#74159D" opacity="1.000000" stroke="none" 
	d="
M198.817291,214.020569 
	C199.413422,205.940582 199.413422,205.938019 207.626419,205.942230 
	C210.439911,205.943665 213.253387,205.961487 216.528854,206.050064 
	C216.786407,207.562363 215.855820,208.008057 214.530960,207.994232 
	C212.540039,207.973450 210.512299,208.240540 208.564682,207.951233 
	C203.673401,207.224640 200.308701,208.658905 198.817291,214.020569 
z"/>
<path fill="#6A0395" opacity="1.000000" stroke="none" 
	d="
M189.784561,225.263321 
	C190.395554,224.663895 190.854156,224.369690 191.575943,223.994141 
	C193.781265,225.152695 195.958832,224.954880 198.120590,225.015503 
	C207.569870,225.280380 217.039307,224.383713 226.720856,225.849228 
	C214.716034,226.224091 202.463226,226.256134 189.698914,226.187042 
	C189.335663,225.913452 189.483932,225.740997 189.784561,225.263321 
z"/>
<path fill="#680094" opacity="1.000000" stroke="none" 
	d="
M217.903992,199.343170 
	C211.784531,198.900940 205.381042,200.606888 199.123016,198.415588 
	C205.304398,198.558304 211.622375,196.821899 217.903992,199.343170 
z"/>
<path fill="#680094" opacity="1.000000" stroke="none" 
	d="
M227.694916,233.924927 
	C227.401474,232.030365 227.431046,229.983719 227.523895,227.505219 
	C230.050598,229.157349 229.392853,231.442047 227.694916,233.924927 
z"/>
<path fill="#6A0395" opacity="1.000000" stroke="none" 
	d="
M218.313141,205.908432 
	C218.027496,204.261536 218.106171,202.535889 218.192627,200.377411 
	C221.140152,201.680893 220.575256,203.701279 218.313141,205.908432 
z"/>
<path fill="#6E0C99" opacity="1.000000" stroke="none" 
	d="
M205.186050,173.872253 
	C205.592224,173.368729 206.397278,172.915604 207.558044,172.418457 
	C207.661636,173.678955 206.759277,174.005371 205.186050,173.872253 
z"/>
<path fill="#6E0C99" opacity="1.000000" stroke="none" 
	d="
M204.162704,174.287308 
	C204.034653,174.143845 204.367172,173.818878 204.593292,173.765472 
	C204.782013,174.053757 204.966415,174.558578 204.162704,174.287308 
z"/>
<path fill="#6E0C99" opacity="1.000000" stroke="none" 
	d="
M223.119934,174.867432 
	C223.257278,174.709518 223.419724,174.751511 223.777649,174.952072 
	C223.679245,175.437241 223.388367,175.707001 223.119934,174.867432 
z"/>
<path fill="#FF5E00" opacity="1.000000" stroke="none" 
	d="
M88.914368,205.506088 
	C84.640625,205.871597 80.253708,205.852859 75.404785,205.754349 
	C74.404083,205.498627 73.832062,205.485474 73.013649,205.401123 
	C72.739365,205.466248 72.647339,205.383514 72.607674,205.336029 
	C72.567360,204.711624 72.568047,204.134705 72.730408,203.155701 
	C72.890793,202.753601 72.918549,202.344482 73.053391,202.189911 
	C74.416321,204.000549 76.347900,203.868332 78.356926,204.074127 
	C81.836342,204.430557 85.543297,202.691879 88.914368,205.506088 
z"/>
<path fill="#255E11" opacity="1.000000" stroke="none" 
	d="
M71.359818,41.015617 
	C72.366531,39.420643 72.366531,39.420643 77.820786,40.535133 
	C76.103935,43.468559 73.843094,40.171574 71.359818,41.015617 
z"/>
<path fill="#255E11" opacity="1.000000" stroke="none" 
	d="
M74.919701,59.546539 
	C73.486313,60.094528 71.990715,60.260475 70.974220,58.366806 
	C72.329521,58.166859 73.982979,57.404556 74.919701,59.546539 
z"/>
<path fill="#215B0A" opacity="1.000000" stroke="none" 
	d="
M73.949036,92.895309 
	C74.333000,92.418655 74.862755,92.217278 75.688690,92.076340 
	C75.779984,93.258636 75.562813,94.358017 73.949036,92.895309 
z"/>
<path fill="#255E11" opacity="1.000000" stroke="none" 
	d="
M80.185730,42.142181 
	C80.653572,42.020466 81.268417,42.181080 81.993607,42.653961 
	C81.513550,42.785660 80.923134,42.605087 80.185730,42.142181 
z"/>
<path fill="#215B0A" opacity="1.000000" stroke="none" 
	d="
M71.218369,93.905586 
	C71.140404,93.686066 71.276062,93.373123 71.697250,93.069885 
	C71.889816,93.391930 71.706223,93.636116 71.218369,93.905586 
z"/>
<path fill="#FF6F03" opacity="1.000000" stroke="none" 
	d="
M72.971046,205.646759 
	C73.319527,205.405563 73.899681,205.344879 74.711319,205.479401 
	C74.362770,205.725494 73.782745,205.776382 72.971046,205.646759 
z"/>
<path fill="#FF6F03" opacity="1.000000" stroke="none" 
	d="
M72.644165,202.929382 
	C72.875000,203.324768 72.859207,203.895935 72.705719,204.877823 
	C71.863205,204.611343 72.044357,203.864975 72.644165,202.929382 
z"/>
<path fill="#FF8E4A" opacity="1.000000" stroke="none" 
	d="
M63.097794,212.617706 
	C62.845375,212.919159 62.542324,212.829086 62.113293,212.440460 
	C62.305229,212.288940 62.658508,212.317017 63.097794,212.617706 
z"/>
<path fill="#FFCA29" opacity="1.000000" stroke="none" 
	d="
M61.609932,205.566742 
	C61.686131,205.286011 61.988522,205.213562 62.755100,205.087738 
	C63.024216,205.777985 62.508736,205.923233 61.609932,205.566742 
z"/>
<path fill="#C399D5" opacity="1.000000" stroke="none" 
	d="
M189.706604,224.963135 
	C189.812790,225.146439 189.688644,225.334763 189.375931,225.804504 
	C188.833954,225.597107 188.990341,225.240051 189.706604,224.963135 
z"/>
<path fill="#34691F" opacity="1.000000" stroke="none" 
	d="
M72.746063,67.955048 
	C80.713249,69.456902 82.550484,71.754723 81.718979,79.318237 
	C80.718407,80.040718 80.488373,80.783524 80.236343,81.966278 
	C80.123360,82.658699 79.994743,82.890671 79.500214,83.059303 
	C78.700096,83.359596 78.055595,83.465088 77.235832,83.910812 
	C77.033356,84.163391 77.048576,84.060951 77.096664,84.080154 
	C75.378380,84.613136 73.624916,85.292465 71.376053,84.259506 
	C70.926468,79.307350 70.859009,74.615189 70.875771,69.463585 
	C71.392342,68.577042 71.860207,68.203255 72.746063,67.955048 
z"/>
<path fill="#33691F" opacity="1.000000" stroke="none" 
	d="
M64.763535,41.666588 
	C65.072807,46.363438 65.140625,50.725857 65.108566,55.543755 
	C62.382053,57.935356 60.103870,55.394390 57.221771,55.273697 
	C56.817963,55.122784 56.920055,55.067448 56.934078,55.123787 
	C56.784721,54.833057 56.562756,54.529774 56.001518,54.190464 
	C55.729923,54.103848 55.882515,54.110229 55.855110,54.181503 
	C55.759609,53.870682 55.654591,53.499302 55.216217,53.135757 
	C54.612625,52.618248 54.297665,52.105892 54.028992,51.282177 
	C54.985481,49.476475 54.175705,47.751888 54.816658,45.813938 
	C54.386772,43.091419 56.444252,42.701447 58.016586,41.759476 
	C60.414490,41.863552 62.302795,39.453369 64.763535,41.666588 
z"/>
<path fill="#205B0D" opacity="1.000000" stroke="none" 
	d="
M57.045971,55.411320 
	C59.387844,54.423550 61.666412,56.219604 64.595505,55.990891 
	C65.122894,57.086136 65.594833,58.568470 63.595997,57.982548 
	C61.450008,57.353497 59.378174,56.471485 57.045971,55.411320 
z"/>
<path fill="#286013" opacity="1.000000" stroke="none" 
	d="
M70.912231,84.394165 
	C72.751495,84.007492 74.509071,84.015465 76.705696,84.061401 
	C75.166069,85.483604 73.222572,87.190170 70.912231,84.394165 
z"/>
<path fill="#205B0D" opacity="1.000000" stroke="none" 
	d="
M65.086029,41.564011 
	C63.069233,40.461727 61.092396,42.278111 58.739048,41.869385 
	C60.512516,40.575897 62.530090,37.751774 65.086029,41.564011 
z"/>
<path fill="#1A5605" opacity="1.000000" stroke="none" 
	d="
M65.070953,94.622986 
	C63.704327,94.833817 62.120144,95.574379 61.123131,93.590576 
	C62.418339,93.480179 64.144699,92.287292 65.070953,94.622986 
z"/>
<path fill="#82BE3C" opacity="1.000000" stroke="none" 
	d="
M52.203178,83.419678 
	C53.583954,81.133301 54.642078,83.070839 56.088558,84.096451 
	C55.023899,84.158607 53.759384,83.912163 52.203178,83.419678 
z"/>
<path fill="#255D13" opacity="1.000000" stroke="none" 
	d="
M63.028313,66.628922 
	C61.767891,66.812569 60.101871,67.644394 59.087185,65.481720 
	C60.422642,65.133713 61.738720,65.452438 63.028313,66.628922 
z"/>
<path fill="#8BC349" opacity="1.000000" stroke="none" 
	d="
M48.319878,59.567127 
	C46.841496,60.014782 45.980515,59.341763 46.099800,57.244461 
	C46.813290,57.659370 47.491329,58.470642 48.319878,59.567127 
z"/>
<path fill="#145200" opacity="1.000000" stroke="none" 
	d="
M54.541187,45.636490 
	C54.828732,47.076168 54.737061,48.732075 54.360336,50.679398 
	C53.502075,49.254581 53.596489,47.549660 54.541187,45.636490 
z"/>
<path fill="#85C040" opacity="1.000000" stroke="none" 
	d="
M51.361305,37.089241 
	C51.024200,35.596169 51.863750,34.953094 53.769386,35.089661 
	C53.319206,35.743393 52.489029,36.363422 51.361305,37.089241 
z"/>
<path fill="#286013" opacity="1.000000" stroke="none" 
	d="
M72.797501,67.709770 
	C72.560059,68.256355 72.077583,68.614494 71.277550,68.988388 
	C70.689140,67.648911 71.021080,66.941048 72.797501,67.709770 
z"/>
<path fill="#1C5707" opacity="1.000000" stroke="none" 
	d="
M80.413528,82.097687 
	C80.340866,81.594482 80.586975,80.849403 81.161209,79.851883 
	C81.236984,80.351570 80.984642,81.103691 80.413528,82.097687 
z"/>
<path fill="#1C5707" opacity="1.000000" stroke="none" 
	d="
M77.353912,84.085358 
	C77.315460,83.452202 77.857681,83.119667 78.947815,83.083778 
	C78.752502,83.391197 78.213486,83.699265 77.353912,84.085358 
z"/>
<path fill="#145200" opacity="1.000000" stroke="none" 
	d="
M54.977425,53.384369 
	C55.925648,52.248547 55.902569,53.007370 55.863289,53.993912 
	C55.560886,54.047897 55.294071,53.843018 54.977425,53.384369 
z"/>
<path fill="#1C5707" opacity="1.000000" stroke="none" 
	d="
M65.064621,67.718246 
	C64.707535,67.960045 64.435204,67.805855 64.122940,67.332649 
	C64.381348,67.217361 64.736816,67.320229 65.064621,67.718246 
z"/>
<path fill="#8BC349" opacity="1.000000" stroke="none" 
	d="
M46.167469,56.651859 
	C45.842052,56.822865 45.387615,56.854370 45.741520,56.136303 
	C45.890331,56.021584 46.133781,56.420593 46.167469,56.651859 
z"/>
<path fill="#145200" opacity="1.000000" stroke="none" 
	d="
M55.840221,54.372841 
	C56.064636,54.282162 56.399353,54.460476 56.841084,54.909462 
	C56.615574,55.000698 56.283047,54.821266 55.840221,54.372841 
z"/>
<path fill="#02838F" opacity="1.000000" stroke="none" 
	d="
M181.770782,54.360340 
	C181.987625,54.075871 182.332458,54.100372 183.188095,54.224777 
	C183.191666,54.924316 182.568848,54.920265 181.770782,54.360340 
z"/>
</svg>